<?xml version="1.0" encoding="utf-8"?>
<!-- Generator: Adobe Illustrator 24.0.3, SVG Export Plug-In . SVG Version: 6.00 Build 0)  -->
<svg version="1.1" id="Слой_1" xmlns="http://www.w3.org/2000/svg" xmlns:xlink="http://www.w3.org/1999/xlink" x="0px" y="0px"
	 viewBox="0 0 332 136" style="enable-background:new 0 0 332 136;" xml:space="preserve">
<style type="text/css">
	.st0{fill:#FFFFFF;}
	.st1{fill:#FF0000;}
</style>
<g id="ЛогоV2" transform="translate(-1 -1)">
	<g id="Сгруппировать_1" transform="translate(21.822 30.088)">
		<path id="Контур_1" class="st0" d="M34.3,50.9l-0.2,6.5c0,1.3-0.5,2.6-1.4,3.5c-1,1.1-2.4,1.6-3.8,1.6h-5.7
			c-1.5,0.1-2.9-0.5-3.9-1.6c-0.9-0.9-1.4-2.2-1.3-3.5l1.5-28.7c0.7-6,2.3-10.3,4.8-12.7s5.9-3.6,10.2-3.6h3.8
			c4.4,0,7.8,1.2,10.2,3.6s4.1,6.7,4.8,12.7l1.5,28.7c0.1,1.3-0.4,2.6-1.3,3.5c-1,1.1-2.4,1.6-3.9,1.6h-5.7C42.3,62.6,41,62,40,61
			c-0.9-0.9-1.4-2.2-1.4-3.5l-0.2-6.5H34.3z M35.2,31l-0.5,9.3H38L37.5,31c-0.1-1.6-0.2-2.9-0.3-3.8c0-0.7-0.2-1.3-0.7-1.8h-0.4
			c-0.5,0.5-0.7,1.2-0.7,1.8C35.4,28.1,35.3,29.4,35.2,31L35.2,31z"/>
		<path id="Контур_2" class="st0" d="M71.4,62.6c-2.3-0.1-4.5-0.6-6.5-1.5c-1.8-0.8-3.3-2-4.3-3.6c-1.2-2-1.8-4.2-1.8-6.4V47
			c0.2-2.3,1.4-3.5,3.4-3.6h9.2c2,0.2,3.1,1.4,3.4,3.6c-0.1,0.9,0.2,1.8,0.8,2.4c0.4,0.5,1.2,0.5,1.7,0.1c0,0,0.1-0.1,0.1-0.1
			c0.6-1.1,0.9-2.3,0.9-3.5c0-0.8-0.4-1.5-1-2.1c-0.6-0.6-2.9-1.4-6.8-2.5c-3.9-1.1-6.8-2.4-8.6-4c-1.8-1.6-2.8-4-3-7.3
			c0-2.6,0.5-5.2,1.5-7.6c1-2.8,2.7-5.3,5.1-7.1c2.2-1.8,4.9-2.8,7.7-2.9h9.1c2.3,0.1,4.5,0.6,6.6,1.5c1.8,0.8,3.3,2,4.3,3.6
			c1.1,2,1.8,4.2,1.8,6.4v4.1c-0.2,2.3-1.4,3.5-3.4,3.6h-9.4c-2.1-0.2-3.2-1.4-3.4-3.6c0-1.3-0.2-2.1-0.7-2.4
			c-0.5-0.5-1.3-0.5-1.8-0.1c0,0,0,0-0.1,0.1c-0.6,1.1-0.8,2.3-0.8,3.5c0,0.8,0.4,1.5,1,2.1c0.6,0.6,2.9,1.4,6.8,2.5
			c3.9,1.1,6.8,2.4,8.6,4c1.8,1.6,2.8,4,3,7.3c-0.1,2.6-0.6,5.2-1.6,7.6c-1,2.8-2.7,5.2-5.1,7.1c-2.1,1.8-4.8,2.8-7.7,2.9L71.4,62.6
			L71.4,62.6z"/>
		<path id="Контур_3" class="st1" d="M99.1,17.5c0-1.3,0.5-2.5,1.4-3.4c1-1.1,2.4-1.6,3.8-1.6h5.7c1.5-0.1,2.9,0.5,3.8,1.6
			c0.9,0.9,1.4,2.2,1.4,3.4v40c0,2.8-2.2,5-4.9,5.1c-0.1,0-0.2,0-0.3,0h-5.7c-1.4,0.1-2.9-0.5-3.8-1.6c-0.9-0.9-1.4-2.2-1.4-3.5
			L99.1,17.5z"/>
		<path id="Контур_4" class="st1" d="M129.5,57.6V25.3h-6.9c-1-0.1-1.9-0.5-2.5-1.3c-0.6-0.8-0.9-1.7-0.9-2.7v-4.8
			c0-1,0.3-1.9,0.9-2.7c0.6-0.8,1.5-1.2,2.5-1.3h30c1,0.1,1.9,0.5,2.5,1.3c0.6,0.8,0.9,1.7,0.9,2.7v4.8c0,1-0.3,1.9-0.9,2.7
			c-0.6,0.8-1.5,1.2-2.5,1.3h-6.9v32.3c0,1.3-0.5,2.5-1.4,3.4c-1,1.1-2.4,1.6-3.8,1.6h-5.8c-1.4,0.1-2.8-0.5-3.8-1.6
			C130.1,60.1,129.6,58.9,129.5,57.6z"/>
		<path id="Контур_5" class="st0" d="M165.4,62.6c-1.5,0.1-2.9-0.5-3.9-1.6c-0.9-0.9-1.4-2.2-1.4-3.5v-37c0-2,0.7-4,1.8-5.7
			c1.1-1.5,2.3-2.3,3.6-2.3h15.8c3.5,0.2,6.8,1.7,9.2,4.3c2.3,2.3,4.1,5.1,5,8.2c0.8,2.9,1.2,5.9,1.1,8.9c-0.1,5-1.6,8.6-4.4,10.9
			c2.7,3.3,4.3,7.5,4.7,12.7c0.1,1.3-0.4,2.6-1.3,3.5c-1,1.1-2.4,1.6-3.8,1.6H186c-1.5,0.1-2.9-0.5-3.9-1.6
			c-0.9-0.9-1.4-2.2-1.4-3.5c-0.4-4-1.1-6.8-1.8-8.2l-2.8,1.1v7.1c0.1,1.3-0.4,2.6-1.3,3.5c-1,1.1-2.4,1.6-3.8,1.6L165.4,62.6
			L165.4,62.6z M180.6,34.9v-2.4c-0.1-3.1-0.6-5.3-1.5-6.4c-0.9-0.6-2-0.9-3-0.7v12.9h0.6C179.2,37.5,180.5,36.3,180.6,34.9
			L180.6,34.9z"/>
		<path id="Контур_6" class="st0" d="M216.3,62.6c-3.3-0.1-6.4-1.3-8.8-3.5c-2.3-2.2-4-4.9-4.9-8c-0.9-3.1-1.4-6.2-1.5-9.4
			v-8.2c0.1-3.2,0.6-6.3,1.5-9.4c0.9-3.1,2.6-5.8,4.9-8c2.4-2.2,5.5-3.5,8.8-3.5h6c3.3,0.1,6.4,1.3,8.8,3.5c2.3,2.2,4,4.9,4.9,8
			c0.9,3.1,1.4,6.2,1.5,9.4v8.2c-0.1,3.2-0.6,6.3-1.5,9.4c-0.9,3.1-2.6,5.8-4.9,8c-2.4,2.2-5.5,3.5-8.8,3.5L216.3,62.6z M220.2,49.4
			c0.6-1.1,0.9-2.3,1-3.5c0.2-1.5,0.3-3,0.4-4.6v-7.5c-0.1-1.5-0.2-3.1-0.4-4.6c-0.1-1.2-0.5-2.4-1-3.5c-0.4-0.5-1.1-0.5-1.6-0.1
			c0,0-0.1,0.1-0.1,0.1c-0.6,1.1-0.9,2.3-1,3.5c-0.2,1.5-0.3,3-0.4,4.6v7.5c0.1,1.5,0.2,3.1,0.4,4.6c0.1,1.2,0.5,2.4,1,3.5
			c0.4,0.5,1.1,0.5,1.6,0.1C220.1,49.5,220.1,49.4,220.2,49.4z"/>
		<path id="Контур_7" class="st0" d="M246.9,62.6c-1.4,0.1-2.8-0.5-3.8-1.6c-0.9-0.9-1.4-2.2-1.4-3.5V17.6
			c0-1.3,0.5-2.6,1.4-3.5c1-1.1,2.4-1.6,3.8-1.6h4.7c2.8-0.2,5.3,1.5,6.3,4.1l4.5,10.3v-9.3c0-1.3,0.5-2.6,1.4-3.5
			c1-1.1,2.4-1.6,3.8-1.6h5.7c2.7-0.1,5.1,2,5.2,4.7c0,0.1,0,0.3,0,0.4v39.9c0,1.3-0.5,2.6-1.4,3.5c-1,1.1-2.4,1.6-3.8,1.6h-4.7
			c-2.8,0.2-5.3-1.5-6.3-4.1l-4.5-10.3v9.3c0,1.3-0.5,2.6-1.4,3.5c-1,1.1-2.4,1.6-3.8,1.6L246.9,62.6
			C246.9,62.6,246.9,62.6,246.9,62.6z"/>
	</g>
	<path class="st0" d="M320,100.5H20c-0.6,0-1-0.4-1-1s0.4-1,1-1h300c0.6,0,1,0.4,1,1S320.6,100.5,320,100.5z"/>
	<path class="st0" d="M320,36.5H20c-0.6,0-1-0.4-1-1s0.4-1,1-1h300c0.6,0,1,0.4,1,1S320.6,36.5,320,36.5z"/>
	<circle id="Эллипс_1" class="st0" cx="129" cy="21.5" r="8"/>
</g>
</svg>
