<?xml version="1.0" encoding="utf-8"?>
<!-- Generator: Adobe Illustrator 26.3.1, SVG Export Plug-In . SVG Version: 6.00 Build 0)  -->
<svg version="1.1" id="Слой_1" xmlns="http://www.w3.org/2000/svg" xmlns:xlink="http://www.w3.org/1999/xlink" x="0px" y="0px"
	 viewBox="0 0 50 50" style="enable-background:new 0 0 50 50;" xml:space="preserve">
<g id="Page-1">
	<g id="Dribbble-Light-Preview" transform="translate(-103.000000, -7321.000000)">
		<g id="icons" transform="translate(56.000000, 160.000000)">
			<path id="call-_x5B__x23_192_x5D_" style="fill-rule:evenodd;clip-rule:evenodd;fill:#FFFFFF;" d="M96.1013794,7204.3208008
				c-1.5433502,4.6889648-7.590065,7.0297852-11.9101028,6.6391602c-5.9000473-0.5322266-12.3200912-3.6625977-17.1934586-7.1098633
				c-7.1633949-5.0664062-13.8734512-12.9033203-17.7834816-21.2207031
				c-2.7633514-5.8754883-3.383358-13.1020508,0.7266808-18.4589844c1.5200043-1.9804688,3.1633492-3.0371094,5.6333733-3.1606445
				c3.426693-0.1660156,3.9067001,1.793457,5.0833778,4.847168c0.8766747,2.2832031,2.0466766,4.612793,2.7000122,6.9790039
				c1.2233429,4.4174805-3.0533562,4.6015625-3.5933571,8.2114258c-0.3366623,2.2753906,2.4233551,5.3286133,3.6700325,6.953125
				c2.4433441,3.1806641,5.3800354,5.9228516,8.6933975,8.0097656c1.8966827,1.1962891,4.9600372,3.3525391,7.1333847,2.1630859
				c3.3467026-1.8330078,3.0300293-7.4755859,7.7100601-5.5664062c2.4233551,0.9863281,4.77005,2.4101562,7.0833893,3.6572266
				C97.6313934,7198.1860352,97.4647217,7200.1801758,96.1013794,7204.3208008
				C95.0813751,7207.4130859,97.1213837,7201.2265625,96.1013794,7204.3208008"/>
		</g>
	</g>
</g>
</svg>
