<?xml version="1.0" encoding="utf-8"?>
<!-- Generator: Adobe Illustrator 26.3.1, SVG Export Plug-In . SVG Version: 6.00 Build 0)  -->
<svg version="1.1" id="Слой_1" xmlns="http://www.w3.org/2000/svg" xmlns:xlink="http://www.w3.org/1999/xlink" x="0px" y="0px"
	 viewBox="0 0 50 50" style="enable-background:new 0 0 50 50;" xml:space="preserve">
<path style="fill:#FFFFFF;" d="M35.2207794,15.0072508c0.009964,0,0.023243,0,0.0365219,0
	c0.3469429,0,0.6689911,0.1082048,0.9329338,0.294652l-0.0049782-0.0033293
	c0.1925583,0.1681347,0.3220444,0.4045219,0.3535843,0.6708727v0.0049944
	c0.0331993,0.2030935,0.0514603,0.4361506,0.0514603,0.6742029c0,0.1082039-0.0033226,0.2147446-0.0116196,0.3212852v-0.0149822
	c-0.3735085,3.9436703-1.9936943,13.5073586-2.8170662,17.9221363c-0.3486061,1.8694534-1.0341949,2.4953804-1.6982079,2.5553093
	c-1.442564,0.1348381-2.5381813-0.9555359-3.9359245-1.8744469c-2.1879158-1.4399643-3.4246349-2.3355713-5.5478096-3.7389126
	c-2.4551792-1.619751-0.8632126-2.5136948,0.5345287-3.9686413c0.3668652-0.3828793,6.7264271-6.184351,6.8509312-6.7103958
	c0.0066395-0.0316296,0.0099602-0.0665874,0.0099602-0.1032124c0-0.1298466-0.0481396-0.2480392-0.1261616-0.3379326l0,0
	c-0.0863209-0.0566006-0.1942253-0.0882301-0.3071041-0.0882301c-0.0747013,0-0.1460819,0.0149822-0.2124844,0.0399532
	l0.0033226-0.0016651c-0.2191238,0.049942-3.7140331,2.3660889-10.4847279,6.9484463
	c-0.7387123,0.5843067-1.671648,0.9538708-2.687582,0.9971504h-0.0099602
	c-1.4392424-0.1747913-2.7456837-0.4960804-3.9857235-0.9538708l0.1228428,0.0399532
	c-1.5571051-0.5093975-2.7938251-0.7774124-2.687583-1.6397285c0.0564404-0.4483585,0.672864-0.9072609,1.8492689-1.3767033
	c7.2465687-3.166256,12.078907-5.253231,14.4970112-6.2609272c2.6676636-1.4199867,5.7602921-2.5886059,9.0122871-3.3460436
	L35.21912,15.005579L35.2207794,15.0072508z M24.9418983,0.0000022C11.1603575,0.0332961,0,11.2450352,0,25.0703506
	c0,13.8452873,11.1918993,25.070343,25,25.070343s25-11.2233925,25-25.0703468C50,11.2450323,38.8396416,0.0332947,25.0614243,0
	h-0.0033226c-0.0387325,0-0.077467,0-0.1162014,0L24.9418983,0.0000022z"/>
</svg>
