<?xml version="1.0" encoding="utf-8"?>
<!-- Generator: Adobe Illustrator 26.3.1, SVG Export Plug-In . SVG Version: 6.00 Build 0)  -->
<svg version="1.1" id="Слой_1" xmlns="http://www.w3.org/2000/svg" xmlns:xlink="http://www.w3.org/1999/xlink" x="0px" y="0px"
	 viewBox="0 0 50 50" style="enable-background:new 0 0 50 50;" xml:space="preserve">
<path style="fill:#FFFFFF;" d="M25,0.0125518c-12.343749,0-25,2.6637244-25,21.936552
	C0,32.2906227,3.59375,38.714901,10.9375,41.6920052v5.7975159c0,1.0968323,0.625,2.0369644,1.5625,2.5070381
	c0.3125,0.1566849,0.78125,0.1566849,1.09375,0.1566849c0.624999,0,1.406249-0.3133774,1.874999-0.7834473l5.625001-5.6408272
	c1.25,0,2.5,0.1566887,3.90625,0.1566887c12.34375,0,25-2.6637268,25-21.936554S37.34375,0.0125518,25,0.0125518z
	 M24.21875,15.9948978c2.8124981,0,5.1562481,2.3503456,5.1562481,5.1707592c0,0.9401379-0.6249981,1.5668964-1.5625,1.5668964
	c-0.9375,0-1.5625-0.6267586-1.5625-1.5668964c0-1.0968285-0.9375-2.0369663-2.03125-2.0369663
	c-0.9375,0-1.5625-0.6267586-1.5625-1.5668964S23.28125,15.9948978,24.21875,15.9948978z M22.65625,12.7044153
	c0-0.9401379,0.625-1.5668964,1.5625-1.5668964c5.46875,0,10,4.5439997,10,10.0281382c0,0.9401379-0.625,1.5668964-1.5625,1.5668964
	c-0.9375019,0-1.5625-0.6267586-1.5625-1.5668964c0-3.7605515-3.125-6.8943453-6.875-6.8943453
	C23.28125,14.2713118,22.65625,13.4878635,22.65625,12.7044153z M35.46875,32.133934
	c-0.625,1.8802757-2.96875,3.4471741-5,3.7605515c-0.4687481,0.1566887-0.9375,0.1566887-1.5625,0.1566887
	c-1.2499981,0-3.125-0.3133812-6.40625-1.723587c-3.75-1.5668945-7.500001-4.8573799-10.46875-9.0880013v-0.1566868
	c-0.9375-1.4102077-2.65625-4.0739326-2.65625-6.8943443c0-3.4471731,1.71875-5.1707602,2.34375-5.9542084
	c0.937501-0.7834482,2.03125-1.2535181,3.281251-1.2535181c0.312499,0,0.46875,0,0.78125,0
	c1.093749,0,1.874999,0.3133793,2.656249,1.8802757l0.625,1.2535181c0.46875,1.2535172,1.09375,2.663723,1.25,2.8204136
	c0.46875,0.9401398,0.46875,1.723587,0,2.5070362c-0.15625,0.470068-0.46875,0.7834473-0.78125,1.0968266
	c-0.15625,0.3133793-0.3125,0.4700699-0.46875,0.4700699c-0.15625,0.1566906-0.15625,0.1566906-0.3125,0.3133793
	c0.46875,0.7834473,1.40625,2.193655,2.65625,3.2904835c1.875,1.723587,3.2812481,2.193655,4.0624981,2.5070343l0,0
	c0.3125019-0.3133793,0.625-0.9401379,1.0937519-1.4102058l0.15625-0.3133812
	C27.5,24.2994518,28.75,23.9860725,30.0000019,24.4561405C30.625,24.7695198,34.0625,26.3364182,34.0625,26.3364182
	l0.3125038,0.1566906c0.4687462,0.3133793,1.09375,0.470068,1.40625,1.0968285
	C36.25,29.0001411,35.78125,31.0371056,35.46875,32.133934z M37.5,22.7325535c-0.9375,0-1.5625-0.6267586-1.5625-1.5668964
	c0-6.4242773-5.3125-11.7517252-11.71875-11.7517252c-0.9375,0-1.5625-0.6267586-1.5625-1.5668964s0.625-1.5668969,1.5625-1.5668969
	c8.125,0,14.84375,6.7376561,14.84375,14.885519C39.0625,22.1057949,38.4375,22.7325535,37.5,22.7325535z"/>
</svg>
