<?xml version="1.0" encoding="utf-8"?>
<!-- Generator: Adobe Illustrator 26.3.1, SVG Export Plug-In . SVG Version: 6.00 Build 0)  -->
<svg version="1.1" id="Слой_1" xmlns="http://www.w3.org/2000/svg" xmlns:xlink="http://www.w3.org/1999/xlink" x="0px" y="0px"
	 viewBox="0 0 50 50" style="enable-background:new 0 0 50 50;" xml:space="preserve">
<path style="fill:#FFFFFF;" d="M25,0C12.03125,0,1.5625,10.46875,1.5625,23.4375c0,5.3125,1.7187498,10.3125,4.9999995,14.375
	l-3.2812498,10c-0.1562498,0.625,0,1.25,0.46875,1.71875C3.90625,49.84375,4.375,50,4.6875,50c0.15625,0,0.4687505,0,0.625-0.15625
	L16.09375,45C18.90625,46.25,21.875,46.875,25,46.875c12.96875,0,23.4375-10.46875,23.4375-23.4375S37.96875,0,25,0z
	 M38.59375,32.03125c-0.625,1.875-2.96875,3.4375-5,3.75c-0.46875,0.15625-0.9375,0.15625-1.5625,0.15625
	c-1.2499981,0-3.125-0.3125-6.40625-1.71875c-3.75-1.5625-7.5-4.8437519-10.46875-9.0625019V25
	C14.218751,23.59375,12.5,20.9375,12.5,18.125c0-3.437499,1.718751-5.15625,2.34375-5.9375c0.78125-0.78125,1.875-1.25,3.125-1.25
	c0.3125,0,0.46875,0,0.78125,0c1.09375,0,1.875,0.3125,2.65625,1.875l0.625,1.25c0.46875,1.25,1.0937481,2.65625,1.25,2.8125
	c0.4687481,0.9375,0.4687481,1.71875,0,2.5c-0.1562519,0.4687519-0.46875,0.78125-0.78125,1.09375
	c-0.1562519,0.3125-0.3125,0.46875-0.46875,0.46875c-0.1562519,0.1562519-0.1562519,0.1562519-0.3125,0.3125
	c0.46875,0.78125,1.4062481,2.1875,2.65625,3.2812519c1.8750019,1.71875,3.2812519,2.1874981,4.0625019,2.5l0,0
	c0.3125-0.3125019,0.6249981-0.9375,1.09375-1.40625l0.1562519-0.3125c0.78125-1.09375,2.0312481-1.40625,3.28125-0.9375019
	c0.625,0.3125,4.0625,1.8750019,4.0625,1.8750019l0.3125,0.15625c0.46875,0.3125019,1.0937538,0.46875,1.40625,1.0937519
	C39.375,28.90625,38.90625,30.9374981,38.59375,32.03125z"/>
</svg>
