<?xml version="1.0" encoding="utf-8"?>
<!-- Generator: Adobe Illustrator 26.3.1, SVG Export Plug-In . SVG Version: 6.00 Build 0)  -->
<svg version="1.1" id="Слой_1" xmlns="http://www.w3.org/2000/svg" xmlns:xlink="http://www.w3.org/1999/xlink" x="0px" y="0px"
	 viewBox="0 0 580.0968018 768" style="enable-background:new 0 0 580.0968018 768;" xml:space="preserve">
<g style="display:none;">
	<rect x="0.5" y="0.5" style="display:inline;fill:#333333;" width="579.0966797" height="767"/>
	<path style="display:inline;fill:#FFFFFF;" d="M579.0968018,1v766H1.0000008V1H579.0968018 M580.0968018,0H0.0000009v768
		h580.0968018V0L580.0968018,0z"/>
</g>
<path style="fill:#FFFFFF;" d="M398.0930176,482.8490601h-169.793869V374.8044434
	c0-8.5559998,6.8978729-15.4538879,15.4538574-15.4538879h92.5907135c8.4897156,0,15.4539185,6.8978882,15.4539185,15.4538879
	v113.6115723h30.8414612V374.8044434c0-25.6017151-20.7599487-46.2953491-46.2953796-46.2953491H243.753006
	c-25.6016998,0-46.2953186,20.7599487-46.2953186,46.2953491v108.0446167h-15.4539185
	c-8.4896698,0-15.4538574,6.8978577-15.4538574,15.4538574v154.3399658c0,8.5560303,6.8978577,15.4539185,15.4538574,15.4539185
	h216.0892487c8.4896545,0,15.4538574-6.8978882,15.4538574-15.4539185V498.3029175
	C413.546875,489.7469177,406.5826721,482.8490601,398.0930176,482.8490601z M325.8002319,597.5888062h-71.5037537v-35.9420166
	h71.5037537V597.5888062z"/>
<text transform="matrix(1 0 0 1 45.0952606 122.9272003)" style="fill:#FFFFFF; font-family:'Roboto-Bold'; font-size:24px;">Как   разблокировать   Google   аккаунт?</text>
<text transform="matrix(1 0 0 1 77.0499573 180.6145325)" style="fill:#FFFFFF; font-family:'Roboto-Bold'; font-size:24px;">Cum   să   deblochezi  account Google?</text>
<text transform="matrix(1 0 0 1 118.1937256 241.1317749)" style="fill:#FFFFFF; font-family:'Roboto-Bold'; font-size:24px;">How to unlock  Google account?</text>
</svg>
