<?xml version="1.0" encoding="utf-8"?>
<!-- Generator: Adobe Illustrator 26.3.1, SVG Export Plug-In . SVG Version: 6.00 Build 0)  -->
<svg version="1.1" id="Слой_1" xmlns="http://www.w3.org/2000/svg" xmlns:xlink="http://www.w3.org/1999/xlink" x="0px" y="0px"
	 viewBox="0 0 814.0645142 250" style="enable-background:new 0 0 814.0645142 250;" xml:space="preserve">
<rect style="display:none;fill:#282828;" width="814.0645142" height="250"/>
<g>
	<path style="fill:#FFFFFF;" d="M287.0429688,105.2675018c8.486969-11.3921738,19.4790039-15.0305099,32.052887-14.081871
		c12.8486633,0.9693222,22.5169373,7.2430267,28.2940674,19.5062027c3.8103943-4.6028748,6.8804321-9.0124283,11.3794556-11.9395599
		c15.0135498-9.7681732,30.9492188-9.3474197,46.6737061-2.7477798
		c15.2877808,6.4163513,21.2999268,19.9098358,22.8501282,35.4040146
		c2.1918945,21.9076538,0.4669189,43.922699,0.9867249,65.8835449c0.0570984,2.4137268-0.6994019,3.1927032-3.1042175,3.1459351
		c-6.6610107-0.1296234-13.332428-0.2124329-19.9870911,0.0305023c-3.1826172,0.1162262-3.8501282-0.9956512-3.8291931-3.9762878
		c0.1297913-18.4871216,0.0240479-36.9757996,0.0952759-55.463562c0.0169678-4.3966522-0.6714172-8.6183777-2.3233948-12.6527863
		c-5.8318176-14.2418747-24.6347046-16.5746078-34.8237915-4.4159241
		c-5.2186584,6.2274628-6.7674561,13.5935822-6.8123169,21.379776c-0.0968323,16.8218842-0.1485901,33.6462555,0.0621948,50.4660492
		c0.0466003,3.7200775-0.8686829,4.9025116-4.6594849,4.6796112c-5.8105164-0.3417206-11.664032-0.2731628-17.4833984-0.0178833
		c-3.2435303,0.1422577-4.2003174-0.7908325-4.1696167-4.1063385c0.1651917-17.820282,0.120697-35.6430511,0.0570984-53.4646301
		c-0.0260925-7.3207092-1.7021484-14.2462158-6.5480957-19.9434891
		c-10.0390015-11.8025818-28.514679-8.7676392-35.5460815,5.7712479c-2.0476685,4.234024-3.0118103,8.7000122-2.9847412,13.4687805
		c0.1001587,17.6547089-0.1522827,35.3137817,0.1701965,52.96315c0.0843811,4.6175232-1.3542175,5.5767212-5.5612793,5.3288269
		c-5.9764404-0.3521729-11.9915161-0.1894531-17.9851379-0.0435028c-2.5184326,0.0613098-3.4592285-0.6048126-3.4524231-3.314209
		c0.0845947-33.6446991,0.0838318-67.2897186-0.0001221-100.9344177c-0.0066223-2.6537628,0.8005066-3.4307404,3.3915405-3.3534622
		c5.6589966,0.1687012,11.3360596,0.2495117,16.9868164-0.0243759c3.2756042-0.1587906,4.8884277,0.5777054,4.8729858,4.1695557
		C285.6358948,99.2513046,286.3760986,101.5211945,287.0429688,105.2675018z"/>
	<path style="fill:#FFFFFF;" d="M756.3921509,134.1516724c-5.2662354-35.3217163-36.8555298-47.7247314-63.5856934-42.3432007
		c-9.6748047,1.9478149-17.9199219,6.598877-25.4953003,14.7741699c0-19.1303711-0.0685425-36.7855835,0.0646973-54.4393921
		c0.0233154-3.085022-0.5305176-4.3960571-4.0023804-4.2219849c-6.1494751,0.3082886-12.3346558,0.2880249-18.4866333,0.0065308
		c-3.3800659-0.1546631-4.1071777,1.0083618-4.0824585,4.1920776c0.1433105,18.4901733,0.0698853,36.9820557,0.0698853,55.4733887
		c0.000061,29.319519,0.0794067,58.6395264-0.0933228,87.9580688c-0.0234375,3.9754639,1.0742798,5.1813965,4.993103,4.9263916
		c5.1433716-0.3346558,10.3428345-0.3438721,15.4840088,0.006897c3.6212158,0.2470703,4.6403198-1.4244995,4.894104-4.4892578
		c0.2463989-2.9772339-0.0305176-6.0875244,1.1349487-8.4631348c2.3634644,2.078064,4.4353638,3.973877,6.5844727,5.77771
		c19.5307617,16.3937378,55.7339478,11.4467773,72.0064697-9.9205322
		C757.0940552,168.6617432,759.0366821,151.8890381,756.3921509,134.1516724z M700.1884766,178.5601196
		c-17.9630127-0.0737915-30.979248-13.4214478-30.9882812-31.7774658
		c-0.0088501-18.0665894,13.3901978-31.706543,31.1581421-31.7183838
		c17.6582031-0.0116577,30.7393799,13.3582153,30.7918701,31.4715576
		C731.2030029,164.7664185,717.7969971,178.6325073,700.1884766,178.5601196z"/>
	<path style="fill:#FFFFFF;" d="M565.2822266,95.7679443c0.0091553-2.9109497-1.2058716-3.2686157-3.557373-3.2033691
		c-4.1586914,0.1154175-8.322937,0.0317383-12.4848022,0.0316772c-9.5338745-0.0001221-9.5158691,0.0007935-9.9979858,9.777832
		c-0.0444946,0.9021606,0.3858643,2.0054321-0.7382202,2.8242798c-0.3786011-0.1669922-0.9335327-0.2370605-1.1925659-0.5510864
		c-10.586853-12.8382568-24.7216187-16.0558472-40.3806763-14.5391846
		c-17.7384644,1.7180176-32.1843872,9.3635864-41.1514282,25.2505493
		c-7.3845215,13.0829468-8.6697998,27.3641357-6.4881592,42.0352783
		c3.1140747,20.9419556,13.5161133,36.3331299,34.3984375,42.6962891
		c20.7617798,6.326416,39.7009888,3.8590698,55.1600342-14.6613159c0.4847412,4.4993896,1.0587158,8.2160034,1.2244263,11.9506836
		c0.1049805,2.3667603,0.9176025,3.1149292,3.2646484,3.0614624c6.1564331-0.1402588,12.3205566-0.1433716,18.4768066,0.0001831
		c2.5111084,0.0585938,3.4613037-0.5947876,3.4545288-3.3079224
		C565.1850586,163.3449707,565.1760864,129.5562134,565.2822266,95.7679443z M506.4746704,178.9562378
		c-18.4505005-0.1486816-32.0331421-14.3164673-31.7211914-33.0876465
		c0.3182983-19.1502686,13.6971436-32.781189,32.12677-32.7321167
		c18.4367676,0.0491333,31.5794067,13.8805542,31.5178833,33.1697998
		C538.336792,165.5401001,525.0726929,179.1060791,506.4746704,178.9562378z"/>
	<path style="fill:#FFFFFF;" d="M235.7084656,124.9464645c-1.2558594,32.3789902-15.8585815,56.9389267-45.3111572,70.5962601
		c-30.2617188,14.032547-58.9342194,8.8910828-84.8211975-12.1277466c-3.0704193-2.4930573-2.9264679-4.2640991-0.5034485-7.1195068
		c26.0493317-30.6981354,56.1637573-56.530777,91.0904083-76.6800079
		c7.6463013-4.4111938,15.6456604-8.1208572,23.4480591-12.2146378c4.0853577-2.1435318,6.1622162-1.7374268,8.1578674,2.7305756
		C232.7258759,101.2289124,235.8432007,112.6325531,235.7084656,124.9464645z"/>
	<path style="fill:#FFFFFF;" d="M222.5894318,82.0324478c-51.2867126,9.6287537-97.4401703,30.8488617-141.2929077,57.8033981
		c-7.793251-29.4909058,7.412056-70.6982193,46.1958008-87.4041977
		C160.4282379,38.2446213,204.638443,51.4143982,222.5894318,82.0324478z"/>
	<path style="fill:#FFFFFF;" d="M616.3198242,147.0026093c0.000061,16.3186646-0.0881958,32.6382446,0.0737305,48.9552917
		c0.0327759,3.3083496-0.5444336,4.7262726-4.2611694,4.5269165c-6.1445923-0.3295746-12.3218994-0.1878967-18.480835-0.0444489
		c-2.6360474,0.0614014-3.8370361-0.4789276-3.828125-3.5139313c0.0985107-33.6361847,0.0963745-67.2728271,0.001709-100.9090118
		c-0.0081177-2.8904953,1.229248-3.2053223,3.5831299-3.1646271c6.4933472,0.1123276,12.9954834,0.195549,19.4829102-0.0310593
		c3.0053101-0.1049423,3.4971924,1.07061,3.480896,3.7264786
		C616.269043,113.3658447,616.3198242,130.1843719,616.3198242,147.0026093z"/>
	<path style="fill:#FFFFFF;" d="M618.4210815,61.41082c0.0042114,9.1090393-6.1496582,15.3806992-15.2259521,15.517189
		c-8.9946899,0.1352692-15.9125977-6.6723099-15.8858032-15.6322289
		c0.0267944-8.9574509,6.3947754-15.2887535,15.4674683-15.3782578
		C612.1478882,45.8249931,618.416748,52.0334435,618.4210815,61.41082z"/>
</g>
</svg>
