<?xml version="1.0" encoding="utf-8"?>
<!-- Generator: Adobe Illustrator 26.3.1, SVG Export Plug-In . SVG Version: 6.00 Build 0)  -->
<svg version="1.1" id="Слой_1" xmlns="http://www.w3.org/2000/svg" xmlns:xlink="http://www.w3.org/1999/xlink" x="0px" y="0px"
	 viewBox="0 0 845 250" style="enable-background:new 0 0 845 250;" xml:space="preserve">
<rect style="display:none;fill:#4C4C4C;" width="845" height="250"/>
<g>
	<path style="fill:#FFFFFF;" d="M824.8886108,150.9391479c-10.7727051,2.2362366-18.4941406-1.1711884-22.6386108-11.8063354
		c-1.0059814-2.5813293-2.8883057-4.8378906-4.4726562-7.1726685c-0.9362183-1.3795319-2.1026611-2.8587036-4.0343628-2.1743774
		c-1.7893066,0.6338196-1.3881836,2.3672943-1.3921509,3.8598633c-0.0123901,4.6487579-0.2883911,9.3062744-0.076416,13.9427948
		c0.1352539,2.9560242-0.9924316,3.5302887-3.6880493,3.5640717c-8.4987183,0.1065369-8.5200806,0.2164307-8.5284424-8.2511902
		c-0.0133667-13.4565582,0.1060791-26.91436-0.0566406-40.3689117c-0.0403442-3.3379822,0.6760864-5.0871735,4.3481445-4.517868
		c0.9753418,0.1511993,2.0176392,0.1748581,2.9867554,0.0092163c4.3004761-0.735054,5.3693237,1.1406021,4.9728394,5.1929092
		c-0.3860474,3.9455872-0.0630493,7.964653,0.0248413,11.9497757c0.0306396,1.3903427-0.5731201,3.2678909,1.4185791,3.7444611
		c1.5703735,0.3757782,2.2868042-1.1638565,2.9634399-2.2400894c3.0872192-4.9104691,6.0908813-9.8733215,9.1244507-14.8173523
		c1.105957-4.8843689,4.8439331-5.3246841,8.8349609-5.0463867c2.8536377,0.1989899,6.72052-1.3790359,8.2329712,1.7028809
		c1.4858398,3.0279312-1.9208984,5.2928314-3.586853,7.624115c-3.0823364,4.3133087-6.1141968,8.666214-9.2943115,12.9081497
		c-1.9382324,2.5853806-2.0955811,4.9214478-0.1712036,7.6798325c5.1161499,7.3335953,9.8518066,14.9275131,15.0327148,22.2203445
		C824.8886108,149.6079712,824.8886108,150.2735596,824.8886108,150.9391479z"/>
	<path style="fill:#FFFFFF;" d="M223.7615814,120.4030151c-3.5029449,9.7420654-6.7313538,18.1912231-9.5289917,26.780304
		c-1.0171509,3.1226654-2.5346069,3.969696-5.6773224,4.0117798c-3.220932,0.0431061-4.6141815-1.0071716-5.6149445-4.0417938
		c-2.8303223-8.582489-6.0413818-17.0397949-9.3720703-26.2957306c0,8.9310913-0.3529053,16.9790955,0.1338348,24.9761353
		c0.286911,4.7140808-1.4054871,5.8782043-5.5601654,5.2471619c-0.9741821-0.1479645-2.0125885-0.1232758-2.9880524,0.0316315
		c-3.2357635,0.513855-3.8970032-1.0789337-3.8769531-3.9665527c0.1049957-15.1210175,0.1060028-30.2434387,0.0124512-45.364563
		c-0.0164185-2.6521912,0.5160675-3.7707825,3.5285034-3.8343735c11.3146362-0.2388458,11.3119354-0.3600464,15.0151825,10.3069077
		c2.5605316,7.375412,5.1168976,14.7522736,7.6906891,22.1230621c0.2155151,0.6171722,0.5496979,1.1930084,1.2371368,2.6590271
		c1.8935394-5.4093323,3.5566711-10.1177063,5.1896667-14.8364868c1.9543152-5.6472473,4.0361786-11.2574615,5.753952-16.9762268
		c0.7855988-2.615303,2.195755-3.1996231,4.6947021-3.2536469c11.5373077-0.2494202,11.5437012-0.3162994,11.5541077,11.0894852
		c0.0113831,12.4631271-0.1326752,24.9287949,0.0935669,37.3878708c0.067337,3.7081604-0.9181824,5.2659607-4.7174225,4.6603394
		c-1.2996216-0.2071533-2.6773834-0.201416-3.9845581-0.0290527c-2.896286,0.3819275-3.6861267-0.8447571-3.637619-3.6252136
		C223.8563843,138.906311,223.7615814,130.3552856,223.7615814,120.4030151z"/>
	<path style="fill:#FFFFFF;" d="M619.1608887,128.2329712c0-8.8070221,0.1188965-17.6165009-0.0637817-26.4197464
		c-0.0648193-3.1256332,0.9902954-4.0053406,4.0219727-3.8463364c9.4727173,0.4968414,8.3068848-1.8904572,8.3964844,8.5288696
		c0.1144409,13.3057632-0.1112671,26.6151733,0.0817261,39.9190674c0.0525513,3.6232605-0.8463135,4.5097504-4.6322021,4.8404236
		c-5.7369385,0.5011139-8.6325073-1.6402283-11.1685181-6.5256348c-4.27771-8.2406464-9.3115234-16.0898285-14.0345459-24.1156769
		c-1.8067017,0.6189651-0.8939209,2.0111542-0.9065552,2.9669876c-0.0895386,6.8184891-0.0485229,13.6385727-0.0712891,20.4580765
		c-0.0232544,7.0068817-0.0509644,6.7167053-7.2147217,7.1261444c-4.2918091,0.2452698-5.2606812-1.2272491-5.2035522-5.2280273
		c0.206604-14.4675903,0.2081909-28.9416962,0-43.4092255c-0.0553589-3.8435211,1.269104-4.3847504,4.847229-4.6756744
		c5.5154419-0.4484558,8.3442383,1.6880569,10.8001099,6.3752213c4.3522339,8.3063202,9.3845825,16.2572556,14.1323853,24.3568954
		C618.4840698,128.4672089,618.8224487,128.3500977,619.1608887,128.2329712z"/>
	<path style="fill:#FFFFFF;" d="M428.3359375,128.170639c0-8.1284943,0.188446-16.2631454-0.0769653-24.3829956
		c-0.1391907-4.2578278,0.6258545-6.8090591,5.6208496-5.7599182c0.9533691,0.2002411,2.0064087,0.1192627,2.9846802-0.02565
		c3.210144-0.475502,3.9372864,1.078949,3.9168701,3.9963837c-0.1058655,15.1170654-0.1047668,30.2355194-0.0121765,45.3527069
		c0.0161743,2.6458282-0.5487061,3.5788269-3.5116577,3.8574066c-5.9602966,0.5604095-9.7081909-1.1719055-12.5205078-6.8250122
		c-4.086792-8.2149963-9.1707458-15.9353027-14.8032227-23.6064758c0,8.5469055-0.1735229,17.098999,0.081604,25.6383057
		c0.1088257,3.6423492-0.7980347,5.3224945-4.65802,4.696701c-1.2976379-0.2103729-2.6711426-0.1718903-3.984375-0.0227051
		c-2.7045593,0.3072357-3.789856-0.5265656-3.7566528-3.4975433c0.1708069-15.2823334,0.2176819-30.5677338,0.0935974-45.8503265
		c-0.0263672-3.2504807,1.3017883-3.5238037,4.0914612-3.8371582c5.4597168-0.613266,8.7415161,1.0232468,11.337677,6.1468277
		c4.2415466,8.3707199,9.3965454,16.2798538,14.1661682,24.3837204
		C427.6488037,128.346817,427.9924011,128.2587433,428.3359375,128.170639z"/>
	<path style="fill:#FFFFFF;" d="M760.6463013,128.3361664c0-8.6082458,0.1315308-17.2195053-0.0663452-25.8232193
		c-0.0764771-3.3240204,0.6759644-5.0714493,4.3518677-4.4955063c1.1384888,0.1783829,2.3452148,0.1593781,3.491272,0.008461
		c3.4349365-0.4523392,4.5300293,0.7643356,4.4747925,4.3811111c-0.2232666,14.6378403-0.1865234,29.282486-0.0029297,43.9215851
		c0.0438232,3.4943695-0.5909424,4.6652679-4.5166016,4.9438782c-5.6403809,0.4002686-8.673645-1.5701294-11.2272949-6.4574127
		c-4.37146-8.3666077-9.4581299-16.360611-15.09729-24.400856c0,8.4958878-0.2175293,16.9997635,0.0945435,25.4841995
		c0.149292,4.0587616-0.8477783,5.4588623-5.1394043,5.257843c-7.0792236-0.331604-7.1039429-0.0301361-7.1091919-7.2051086
		c-0.0101929-13.8094635,0.0826416-27.6199799-0.0748901-41.4276886c-0.0374756-3.2827225,0.6022949-4.4134827,4.2889404-4.6434326
		c5.5249023-0.3446121,8.7071533,1.2816696,11.2849121,6.3845062c4.2436523,8.4004517,9.4282227,16.3269119,14.2161255,24.453186
		C759.9586182,128.5905304,760.3024292,128.4633484,760.6463013,128.3361664z"/>
	<path style="fill:#FFFFFF;" d="M582.6947021,124.7907715c0-2.3257446,0.1512451-4.6629639-0.0253906-6.9752197
		c-0.8984375-11.7557983-9.9927368-20.2731323-21.720459-20.4406128
		c-12.0939941-0.1726685-21.0349121,7.5980225-22.3425903,19.597168c-0.5402832,4.9574585-0.583313,9.9592285-0.0473022,14.9274902
		c1.3550415,12.5597534,10.5061646,20.4503784,23.0249634,19.946106c11.9632568-0.4818726,20.62146-9.3082886,21.1260986-21.5726318
		c0.0750122-1.8245239,0.010376-3.6547241,0.010376-5.4822998
		C582.711853,124.7907715,582.7032471,124.7907715,582.6947021,124.7907715z M568.9065552,136.2438965
		c-1.2841797,3.7449951-4.3604736,5.6968994-8.5311279,5.6143799c-4.4004517-0.0870361-7.0525513-2.498291-8.6370239-6.3292847
		c-1.5092773-3.649292-0.9066162-7.5232544-1.0775146-11.3140259c0.1260376-3.6273804-0.2310791-7.2756958,1.2124634-10.7924194
		c1.5540771-3.7862549,4.2255249-5.8746948,8.310791-5.9912109c4.057312-0.1157227,7.4296875,1.6141357,8.668457,5.4173584
		C571.3636475,120.5579834,571.5574951,128.5131226,568.9065552,136.2438965z"/>
	<path style="fill:#FFFFFF;" d="M493.1144104,124.0078201c0-2.3260574-0.2088928-4.6744003,0.0370178-6.9742432
		c0.9420166-8.8100357,5.0432129-15.7569962,13.7254944-18.4491501c8.4925842-2.6333237,16.8156433-1.8241348,23.5814514,5.0156403
		c1.3173828,1.3317871,2.2980347,2.8550873,2.9249268,4.5853958c1.0650024,2.9396896,3.0950317,6.6179123,0.6859131,8.8648605
		c-2.3025513,2.1475372-6.3421021,0.5992813-9.6086426,0.5710449c-1.9168701-0.0165634-1.4801636-1.8015518-1.6698608-3.0512009
		c-0.6547241-4.3134918-2.9991455-6.8556061-7.5141602-7.2347794c-4.5238342-0.3799133-7.7041321,1.906105-8.8204041,5.8312759
		c-2.1607056,7.5979385-2.3302612,15.4721298,0.1161194,23.0514908c1.3555603,4.199646,4.8534241,6.1485596,9.4518433,5.6792297
		c4.190979-0.4277344,5.9260254-3.0989838,6.690918-6.8880615c0.6327515-3.1342773,5.0038452-4.5710144,10.0540161-3.2696686
		c3.5162964,0.9061127,2.0830688,3.6776428,1.6860962,5.7018127c-1.6704712,8.5184937-7.9650879,13.6222229-17.3872681,14.3619995
		c-10.4967651,0.824173-18.881134-4.1274872-22.4024353-13.0388641
		C492.7662964,133.9582825,493.1182251,128.9766083,493.1144104,124.0078201z"/>
	<path style="fill:#FFFFFF;" d="M291.8859863,123.9969482c0-7.3107605,0.1106873-14.6240311-0.0553589-21.9310303
		c-0.0648804-2.856308,0.4907532-4.1172638,3.7649231-4.1147079c8.3824158,0.0065384,8.3882141-0.1653824,8.3982849,8.3788528
		c0.012146,10.3015976,0.0972595,20.6042633-0.032959,30.9041443c-0.0379333,3.0016022,0.8236389,4.1395569,3.9873352,3.9703522
		c4.976593-0.2661896,9.9875183,0.1155548,14.9653625-0.1386566c4.1531067-0.2120819,3.5700684,2.4677887,3.4555969,4.9224091
		c-0.1110535,2.3824921,1.1466064,5.3628235-3.5415955,5.1894684c-8.9723511-0.3317566-17.9717712-0.2669525-26.9481506,0.0116425
		c-3.5068359,0.1088409-4.1048584-1.1927643-4.0309753-4.2646942c0.1837769-7.6386719,0.0604553-15.2847137,0.0604553-22.9277954
		C291.9012756,123.9969406,291.8936157,123.9969482,291.8859863,123.9969482z"/>
	<path style="fill:#FFFFFF;" d="M389.7115784,124.4790344c0,7.4837341-0.1687622,14.9730377,0.0787354,22.4485931
		c0.106781,3.2259216-0.6785278,4.2953033-4.0708618,4.2588043c-8.0466614-0.0866089-8.132782,0.1032562-8.1882324-8.0451813
		c-0.0927429-13.6356812,0.0177002-27.2732239-0.1523132-40.9075546c-0.0394592-3.1632385,0.6801147-4.7244186,4.137085-4.2407227
		c1.6335754,0.228569,3.3358459,0.1628418,4.9882812,0.0176773c2.7086487-0.2379608,3.3678284,0.9660416,3.3168335,3.519455
		c-0.1526489,7.646965-0.0549011,15.2989197-0.0549011,22.9489288
		C389.7479858,124.4790344,389.7297974,124.4790344,389.7115784,124.4790344z"/>
	<path style="fill:#FFFFFF;" d="M161.7727661,124.2269897c-0.7617798-32.5316772-22.1066895-58.8276978-53.7901611-66.2246094
		c-1.484375-0.3465576-2.9174805-0.6622314-3.9328613-1.9091187c-5.6654053,0-11.3308105,0-16.9962158,0
		c-2.5794067,1.1027832-5.3121948,0.9904785-8.0275879,1.0111694c-7.2630005,0.1245728-13.4227295,3.5331421-19.4772949,6.9057617
		c-16.9230347,9.4268799-27.7022705,23.7192383-32.9121094,42.3170776c-0.7108765,2.5375977,0.1325073,5.3625488-1.5690918,7.671875
		c0,6.6558838,0,13.3117065,0,19.9675903c1.4020386,3.534729,0.7059937,7.4294434,1.9073486,10.9978638
		c5.6077271,18.5898438,16.9058838,32.4886475,33.967041,41.8996582c6.3673706,3.5122681,13.2122192,5.2390137,20.1130371,7.005127
		c6.9984741,0,13.9968872,0,20.9953613,0c2.22052-1.0896606,4.902832-0.5155029,7.0288696-1.9454346
		c0.6416016-0.1726074,1.28479-0.3394165,1.9244385-0.5186768
		C141.578186,182.8381348,162.4970093,155.1574707,161.7727661,124.2269897z M149.9160767,135.3479004
		c-3.5354004,23.1350708-24.0147095,43.4064941-47.2028809,46.6871338
		c-0.9869385,0.1396484-1.9726562,0.4412231-2.9553833,0.4266968c-2.3429565-0.0345459-5.8719482,2.2113647-6.3052368-2.1218872
		c-0.3259277-3.2589722-1.656189-7.0740356,3.8903809-8.6392822c10.8583374-3.06427,13.9783936-15.4595947,6.4614868-23.8922729
		c-0.8807373-0.9880371-1.8261108-1.9187012-2.7414551-2.8759766c0-0.000061,0-0.000061,0-0.0001221
		c0,0.000061-0.000061,0.000061-0.000061,0.0001221c-0.6871948-0.3795776-1.3744507-0.7591553-2.0617065-1.1387329l0,0
		c0.0001221,0.0002441,0.0002441,0.0003662,0.0003662,0.0006104c-6.0796509-1.4873047-12.265564-0.6950073-18.4024048-0.7955322
		c-10.8199463-0.1773682-21.6430054-0.1656494-32.4647827-0.2330933c-0.8250122,0.065979-1.6491699,0.1760254-2.4750977,0.190979
		c-6.826355,0.1240845-9.5844116-3.1109009-8.8251953-9.9243774c0.2852783-2.5602417,1.9168701-2.2929688,3.5386963-2.2897339
		c21.8972168,0.0435791,43.7944336,0.1073608,65.6916504,0.1661377c13.4707031-0.0654907,26.9433594-0.0231934,40.4108887-0.2636719
		C150.4071655,130.574707,150.3413696,132.5650024,149.9160767,135.3479004z M140.7166748,119.6763916
		c-14.284668-0.1019897-28.5688477-0.2650757-42.8532715-0.4018555
		c-11.3511963,0.6999512-22.7041626,0.6151733-34.0582275,0.0776367c-8.1299438,0.1190796-16.2602539,0.2194214-24.3896484,0.368042
		c-2.6057129,0.0476074-3.0187378-1.3435059-2.6702881-3.5380859c4.1161499-25.9259033,24.2879028-44.7836304,47.9100952-48.2033691
		c0.6563721-0.0950317,1.328186-0.079895,1.9866943-0.1640625c6.0588379-0.7740479,8.4990234,2.2091675,6.6785278,8.081665
		c-0.3521729,1.1361084-1.1656494,1.4786987-2.0943604,1.8720703c-10.4032593,4.40625-12.5328979,7.6199341-12.1412354,18.2645264
		c3.168457,8.1456909,9.0355225,11.4329224,17.8331909,11.2011719c15.4229736-0.406189,30.8643188-0.1434937,46.2977295-0.081604
		c1.5413208,0.0061646,3.3329468-0.81427,4.6298828,0.80896c-0.0002441,0.0002441-0.0004883,0.0003662-0.0007324,0.0006104
		c0.0003662,0,0.0007324,0,0.0010986,0c0.0961914,0.1345825,0.2269287,0.2567139,0.2844238,0.4067993
		C152.2692261,119.180542,151.913269,119.7562866,140.7166748,119.6763916z"/>
	<path style="fill:#FFFFFF;" d="M678.2897949,131.7763062c-0.8560181-3.6703491-4.7457886-5.6536255-5.4816895-8.3859863
		c-0.6361694-2.3613892,3.9683838-5.2741089,3.9262695-9.0463867c-0.0147705-1.3259277,0.0222778-2.6717529-0.1862183-3.9730225
		c-1.168396-7.2924194-7.0817261-11.7454834-16.5670166-12.1896362c-5.6482544-0.2645264-11.3233643,0.0462646-16.9717407-0.2160645
		c-3.197998-0.1484985-4.3996582,0.7252808-4.2922363,4.1104736c0.2368774,7.4721069,0.0735474,14.9569092,0.0735474,22.4365845
		c0.0088501,0,0.0176392,0,0.0264893,0.000061c0,7.645752-0.0310059,15.2918091,0.0265503,22.9371948
		c0.0112305,1.4946289-0.6615601,3.7091064,2.0470581,3.6090088c8.9519653-0.3307495,18.0114136,1.1984863,26.8422241-1.1348267
		C676.0825806,147.7174683,680.2484131,140.1744995,678.2897949,131.7763062z M655.5410767,107.9067383
		c6.3735962,0.4856567,9.2449951,1.9614868,9.1465454,6.0339966c-0.0895996,3.7084351-2.8433228,5.1821289-8.5246582,5.5721436
		c-4.6951294,0.3222656-5.9976807-1.5890503-5.0718384-5.6381836
		C650.7356567,110.4119873,650.3858643,107.513916,655.5410767,107.9067383z M655.7432861,141.2449951
		c-6.001709,0.3386841-4.696228-3.3348999-4.7044678-6.6273193c0.0788574-6.7720337-1.0629272-5.9993286,7.1086426-6.0563354
		c6.1067505-0.0426025,8.3500977,1.7946777,8.303833,6.5335693
		C666.404541,139.8810425,664.0918579,140.7738647,655.7432861,141.2449951z"/>
	<path style="fill:#FFFFFF;" d="M370.9257812,119.006958c-0.548584-12.0865479-9.5202637-20.7058105-21.6634521-20.9067383
		c-4.9889526-0.0825806-9.9953003,0.1854248-14.9647827-0.1425781c-3.496521-0.2307739-4.1759644,1.1489258-4.0959473,4.2750244
		c0.1911621,7.4697876,0.0617676,14.9477539,0.0617676,22.4224243c-0.0056763,0-0.0112915,0-0.0169678,0
		c0,3.8204346-0.0050659,7.6409302,0.0014648,11.4613647c0.0065308,3.8202515,0.1164551,7.6432495,0.0043945,11.4598389
		c-0.0705566,2.4041748,0.4628296,3.6871338,3.2831421,3.5835571c5.6486206-0.2074585,11.3179932,0.0874023,16.9616699-0.1821899
		c11.288269-0.5392456,19.6415405-8.7680054,20.385498-20.0169067
		C371.1450806,126.991394,371.1063232,122.9842529,370.9257812,119.006958z M358.1730957,133.1344604
		c-1.5560913,6.3721313-7.6627197,9.7561646-13.9136963,7.989624c-2.0269775-0.5728149-1.888916-1.9492188-1.8829956-3.4598999
		c0.0167847-4.3095093,0.0058594-8.6191406,0.0058594-12.9287109c0.0288696-0.000061,0.0578003-0.000061,0.0866699-0.000061
		c0-4.475708,0.0927124-8.9541016-0.0352173-13.4261475c-0.0751953-2.6287842,0.9972534-3.3222046,3.5410156-3.3602295
		c7.9914551-0.1193237,12.2468872,3.402832,12.6777954,11.319519
		C358.9036255,123.8817139,359.2888184,128.5656128,358.1730957,133.1344604z"/>
	<path style="fill:#FFFFFF;" d="M488.5343018,117.9928589c-0.9326172-11.7062378-9.796875-19.7062988-21.5884399-19.9031982
		c-4.6581421-0.0778198-9.3345947,0.1942749-13.9723511-0.128479c-3.791626-0.263855-5.3327026,0.6327515-5.1193848,4.8258057
		c0.3709717,7.2926636,0.1031494,14.6177979,0.1031494,21.9292603c0.0122681,0,0.0245972,0,0.0368652,0
		c0,7.6438599,0.0249634,15.2878418-0.0171509,22.9314575c-0.0108032,1.9623413-0.0928345,3.5825806,2.7402344,3.4924927
		c6.1506958-0.1956787,12.3338623,0.1925659,18.4595337-0.2579956c10.3024292-0.7578125,17.9485474-8.2141724,19.0532837-18.4735718
		C488.7432251,127.6425781,488.9144287,122.7642212,488.5343018,117.9928589z M476.1542969,131.3818359
		c-0.8516235,7.4078369-6.6528931,11.2366943-13.9536743,9.822998c-2.1757202-0.4213257-2.0316162-1.7666626-2.0306396-3.2747803
		c0.0028687-4.4815063,0.0010376-8.9630127,0.0010376-13.444458c0.0055542,0,0.0111084,0,0.0166626-0.000061
		c0-4.3154907,0.1987915-8.6433105-0.0678101-12.9423218c-0.1868286-3.0123291,1.0079346-3.5756226,3.7197266-3.5797729
		c8.0036011-0.0123291,12.0448608,3.4474487,12.5024414,11.4893799
		C476.5675659,123.4168091,476.6066895,127.4473877,476.1542969,131.3818359z"/>
	<path style="fill:#FFFFFF;" d="M285.9665527,117.9604492c-0.8890381-12.3178101-10.1760254-20.7716675-22.519104-20.5864868
		c-12.4005737,0.1859741-21.1558838,8.8739624-21.5184326,21.4499512c-0.1148071,3.9814453-0.1416626,7.973877,0.0101929,11.9530029
		c0.4500732,11.7954712,9.0393066,20.6191406,20.3861084,21.0765381
		c12.6813354,0.5111694,22.1014404-7.2321167,23.4937134-19.4624634c0.2796021-2.4561157,0.0404053-4.9711304,0.0404053-7.4589844
		c0.0436401-0.000061,0.0872803-0.0001221,0.1309814-0.0001831
		C285.9904175,122.6074829,286.1334229,120.2728271,285.9665527,117.9604492z M273.0717773,134.0611572
		c-0.9682007,4.9335327-4.4752808,7.7209473-8.9950562,7.7756348c-5.0895996,0.0615845-7.8707275-2.8601685-9.3927002-7.3703613
		c-1.0914307-3.234375-0.463562-6.5824585-0.8151245-10.5751343c0.1558838-2.2789917,0.0756226-5.3013916,0.6245117-8.2052612
		c0.9625244-5.0924683,4.6455078-8.2120972,9.1585083-8.2603149c4.7984619-0.0513306,8.2432861,2.6061401,9.4119873,7.8921509
		C274.4358521,121.5233154,274.289917,127.8538818,273.0717773,134.0611572z"/>
	<path style="fill:#FFFFFF;" d="M726.2200928,146.9820557c-5.2772217-15.2016602-10.4944458-30.4282837-15.395813-45.75354
		c-1.5966187-4.9921875-5.2015381-2.8399048-8.1324463-3.1296997c-2.6038818-0.2575073-4.9423828-0.5205688-6.1386108,3.1932983
		c-4.5755005,14.204895-9.616333,28.2598267-14.4368896,42.3865967c-2.5196533,7.3839111-2.4754028,7.3413086,5.2723389,7.3984985
		c2.7677002,0.0204468,4.9089355,0.142395,5.9353027-3.4868164c2.1386719-7.5626221,2.4119263-7.4855347,10.6998291-7.4933472
		c2.7001953,1.0960693,7.2626343-2.5303345,8.961792,3.4662476c2.1657104,7.6428833,2.4697876,7.3730469,10.2453003,7.597229
		C726.9251709,151.2670288,727.3713989,150.298645,726.2200928,146.9820557z M705.8615112,130.104187
		c-6.7670288,0.7198486-7.2007446,0.307373-5.2543945-6.0157471c0.8678589-2.819397,1.7388916-5.6377563,3.052002-9.8938599
		c1.6932373,5.3839111,2.8765869,9.2807617,4.1528931,13.1470337
		C708.4439087,129.2557983,707.9161987,129.8856201,705.8615112,130.104187z"/>
</g>
</svg>
