<?xml version="1.0" encoding="utf-8"?>
<!-- Generator: Adobe Illustrator 26.3.1, SVG Export Plug-In . SVG Version: 6.00 Build 0)  -->
<svg version="1.1" id="Слой_1" xmlns="http://www.w3.org/2000/svg" xmlns:xlink="http://www.w3.org/1999/xlink" x="0px" y="0px"
	 viewBox="0 0 238 66" style="enable-background:new 0 0 238 66;" xml:space="preserve">
<style type="text/css">
	.st0{display:none;fill-rule:evenodd;clip-rule:evenodd;fill:#2D2D2D;}
	.st1{fill-rule:evenodd;clip-rule:evenodd;fill:#FFFFFF;}
</style>
<rect class="st0" width="238" height="66"/>
<path class="st1" d="M238,15.9c0-1-1-2-2-2h-8.2V2.7c0-1.5-1-2.5-2.6-2.5c-1,0-2,1-2,2.5v11.2h-7.7c-1,0-2,1-2,2s1,2,2,2h7.7v29.5
	c0,1.5,1,2.5,2,2.5c1.5,0,2.6-1,2.6-2.5V18h8.2C237,18,238,16.9,238,15.9z M4.6,31.7c0-8.1,5.6-14.8,14.3-14.8
	c8.2,0,13.3,6.1,13.3,14.8c0,8.1-5.1,14.3-13.3,14.3C10.2,46,4.6,39.3,4.6,31.7z M19.4,12.9c-6.6,0-11.7,3.1-14.8,7.6v-5.1
	c0-1-1-2-2-2c-1.5,0-2.6,1-2.6,2v47.4c0,1.5,1,2.5,2.6,2.5c1,0,2-1,2-2.5V42.9c3.1,4.6,8.2,7.1,14.8,7.1c10.2,0,17.9-7.6,17.9-18.3
	C37.3,20.5,29.6,12.9,19.4,12.9z M50.6,31.7c0-8.1,5.6-14.8,13.8-14.8c8.2,0,13.8,6.1,13.8,14.8c0,7.6-5.6,14.3-13.8,14.3
	C56.2,46,50.6,39.9,50.6,31.7z M80.7,50c1.5,0,2.6-1,2.6-2.5V31.7c0-11.2-8.2-18.8-18.9-18.8C54.1,12.9,46,20,46,31.7
	C46,41.4,52.6,50,64.4,50c6.1,0,10.7-2.5,13.8-6.6v4.1C78.1,49,79.2,50,80.7,50z M123.1,16.4c0,0-8.2,19.9-12.3,29
	c-3.1,7.6-8.2,14.8-15.3,19.4c-0.3,0-0.5,0.1-0.8,0.3c-0.3,0.1-0.5,0.3-0.8,0.3c-1.5,0-2-1-2-2c0-1,0.5-1.5,1-2
	c4.6-3.1,8.2-6.6,11.2-12.2L90.4,16.4c0,0-0.5-0.5-0.5-1c0-1,1-2,2.6-2c1,0,1.5,0.5,2,1.5l12.3,29L119,14.4c0.5-0.5,1-1,2-1
	c1.5,0,2,1,2,2V16.4z M160.4,50c1.5,0,2.6-1,2.6-2.5V29.7c0-9.7-7.1-16.8-16.9-16.8c-9.7,0-16.9,7.1-16.9,16.8v17.8
	c0,1.5,1,2.5,2.6,2.5c1.5,0,2.6-1,2.6-2.5V29.2c0-6.6,5.1-11.7,11.7-11.7c6.6,0,11.7,5.1,11.7,11.7v18.3C157.8,49,158.8,50,160.4,50
	z M191.5,16.9c-7.1,0-12.3,5.6-13.3,12.2h26C203.3,22,198.7,16.9,191.5,16.9z M208.9,31.2c0,1-1,2-2,2h-28.6
	c0,6.6,5.1,12.7,13.8,12.7c4.6,0,8.2-1.5,11.2-5.1c0-0.5,1-1,1.5-1c1.5,0,2,1,2,2c0,0.5,0,1-0.5,1.5C203.8,47,198.7,50,192,50
	c-11.7,0-18.9-8.7-18.9-18.3c0-10.2,7.7-18.8,18.4-18.8C201.7,12.9,208.9,20.5,208.9,31.2z"/>
</svg>
