<?xml version="1.0" encoding="utf-8"?>
<!-- Generator: Adobe Illustrator 26.3.1, SVG Export Plug-In . SVG Version: 6.00 Build 0)  -->
<svg version="1.1" id="Слой_1" xmlns="http://www.w3.org/2000/svg" xmlns:xlink="http://www.w3.org/1999/xlink" x="0px" y="0px"
	 viewBox="0 0 2218.0644531 476.1290283" style="enable-background:new 0 0 2218.0644531 476.1290283;" xml:space="preserve">
<rect style="display:none;fill:#282828;" width="2218.0644531" height="476.1290283"/>
<g>
	<path style="fill:#FFFFFF;" d="M395.0357361,105.524086c-12.6416931,27.1836319-25.5007019,54.2698288-37.7634277,81.6234512
		c-2.8594055,6.3782806-6.6408386,9.6608582-13.3316956,11.5754089c-20.0916748,5.749176-40.3051147,10.0610657-61.332428,9.8269806
		c-23.4613647-0.261322-44.6074219-7.845108-64.5809784-19.6196442
		c-14.0146637-8.261795-27.5335236-17.4261475-42.8154755-23.4252777
		c-15.3904724-6.0417328-31.2627258-7.517334-47.5535507-5.7859039c-2.0718994,0.2202301-3.6643982,0.3988037-4.7909012-2.1181488
		c-7.4554138-16.6575165-15.0932693-33.2333221-22.6717224-49.8357315
		c-0.2853088-2.3871078-0.7921219-4.6707535-2.8977203-6.2075653
		c-6.9094315-14.6880951-13.8215866-29.3748779-20.7232666-44.0666389
		c-0.5624084-1.1972313-1.0103531-2.4487152-1.5840149-3.6400909c-3.9860764-8.2778625-3.9922485-8.2749023,5.0690765-10.3814812
		c4.8673477,1.2234726,8.0185623-2.9847984,12.2215958-3.8639641c16.4675217-5.3668442,33.3852768-8.6533241,50.512825-10.9962845
		c35.8534698-4.9045753,71.6496887-3.4846611,107.4562073,0.6771717c28.0522308,3.260603,55.9391937,8.0452938,84.139267,9.8853397
		c26.9801331,1.7604408,53.8330078,1.0841827,79.9935913-7.1308823c2.3427429-0.7356968,4.1473083-2.7222366,6.7637939-2.6189194
		c1.3537903-0.8200035,2.8005066-1.4027061,4.3564453-1.7062492c1.1328125-0.4285831,2.3717957-0.6875458,3.3780212-1.3181553
		c2.7953186-1.7518654,1.9566345,0.5456924,2.0996094,1.7831116c-0.5621643,1.5046787-0.1529846,3.4921036-2.1319275,4.2926388
		c-7.9119263,16.7673035-15.8831177,33.5069962-23.7068176,50.3153687
		c-3.1789551,6.8295975-6.0370483,13.8086243-9.0411072,20.7196579
		C395.568573,104.08638,395.9194031,105.131691,395.0357361,105.524086z"/>
	<path style="fill:#FFFFFF;" d="M2029.3792725,406.3573303c-7.6312256-7.9309082-15.3662109-15.7666016-22.8029785-23.8760071
		c-1.4262695-1.5549927-2.8693848-3.1293335-4.322998-4.6774902c-9.9376221-10.584137-19.9516602-21.0975647-29.7745361-31.787262
		c-2.5830078-2.8112793-4.0371094-2.8625488-7.1800537-0.2670593c-7.2814941,6.0134277-9.9807129,13.0281982-9.3439941,22.5084839
		c0.8464355,12.5982056,0.2789307,25.2915039,0.3188477,37.9439087c-0.486084,0.5292664-1.0661621,0.6693726-1.7408447,0.4202881
		c-12.4769287-0.2436829-24.9547119-0.0157471-37.4311523-0.1167603c-5.3234863-0.0430908-5.6968994-0.3712769-5.6988525-5.6628113
		c-0.026123-67.7362976-0.0269775-135.4726257,0.0003662-203.2089233c0.0023193-5.9618988,0.661377-6.5519562,6.6130371-6.5608063
		c10.6478271-0.0158691,21.2957764,0.0140381,31.9434814-0.0222778c1.8325195-0.0062866,3.6193848,0.1535339,5.3835449,0.6255188
		c1.6884766,1.4785309,0.7573242,3.4285431,0.7609863,5.1123047c0.0681152,31.1411133,0.0469971,62.282486,0.0445557,93.4237823
		c-0.0001221,1.6266174-0.0001221,3.2533264-0.0001221,5.6909485c4.4396973-4.084198,8.0598145-7.84729,11.5477295-11.8845825
		c6.4842529-7.5058594,13.6020508-14.460968,20.375-21.7209473c7.635498-8.184082,15.1773682-16.4554596,22.7763672-24.6738434
		c0.4411621-0.4773407,1.027832-0.8201294,1.546875-1.225647c0.3031006,0.0326538,0.6060791,0.0653687,0.9091797,0.0978851
		c16.7438965,0.0245361,33.4884033,0.2210388,50.2282715-0.1002655c1.6445312-0.6468048,3.4880371,0.0462646,5.1140137-0.7489014
		c1.1357422,2.01091-0.8474121,2.6284943-1.7412109,3.5612183c-18.7478027,19.5642242-37.5562744,39.0706635-56.3216553,58.6182404
		c-4.3696289,4.5519104-8.5128174,9.327179-12.9886475,13.7693481c-1.9128418,1.898407-2.1140137,2.8491211-0.0633545,4.91922
		c9.9432373,10.0379333,19.6732178,20.2877808,29.4621582,30.4783325
		c16.8115234,17.5014954,33.619751,35.0064697,50.3956299,52.5419617c1.1152344,1.1656189,2.6970215,2.0402832,2.9438477,3.8876038
		c1.0117188,3.5043945-1.6862793,3.002655-3.5,3.0383911c-6.8259277,0.1347046-13.6550293,0.0881348-20.4824219,0.0454102
		C2047.3598633,406.4503784,2038.3677979,406.7189636,2029.3792725,406.3573303z"/>
	<path style="fill:#FFFFFF;" d="M1833.5384521,302.0663452c-0.8337402-5.7698059-2.1251221-11.3830872-5.338623-16.3846741
		c-4.9865723-7.761322-12.5263672-11.0513306-21.2770996-12.2539062c-3.581665-0.57724-7.1624756-0.7226562-10.7415771,0.020874
		c-11.3024902,1.23703-19.206665,8.2059326-26.1827393,16.2223816c-4.8250732,5.5447998-8.364624,12.0412292-10.7575684,19.1203613
		c-0.5566406,1.6463318-0.8752441,3.1134644-0.6329346,4.7658997c0.6304932,1.7760925,0.3179932,3.6168823,0.3195801,5.42453
		c0.0230713,25.6970825,0.0230713,51.3940735,0,77.091156c-0.0015869,1.8077698,0.3099365,3.6484375-0.3183594,5.4248352
		c-0.0606689,1.6329651-0.1213379,3.2660217-0.1821289,4.8990173c-0.5524902,0.3742065-1.1436768,0.4511414-1.7740479,0.2314148
		c-12.1096191-0.2566833-24.2207031-0.019043-36.3300781-0.1321411c-1.9553223-0.0182495-3.9969482,0.4364624-5.8348389-0.6782837
		c-0.7374268-4.4298096-0.963623-8.8561096,0.1940918-13.2591858c0.5172119-1.9669189,0.2974854-3.9711304,0.2984619-5.9571533
		c0.0198975-42.9101562,0.005249-85.820282,0.0305176-128.7304382c0.0015869-2.6315002-0.3096924-5.2894135,0.9239502-7.83815
		c1.019043-2.1056976-0.6496582-0.2436218-1.0007324-0.5231171c-1.5966797-1.2707367-1.3947754-9.6331482,0.5687256-10.0674744
		c1.7978516-0.3977051,1.6837158-2.387619,3.2307129-2.5754089c12.4539795-0.6721954,24.909668-0.2060699,37.3618164-0.2510529
		c0.8482666-0.0030518,1.6311035,0.2708282,2.3555908,0.7097321c0.8999023,8.3895111,0.6134033,16.7868958,0.1638184,25.1853638
		c0,0.9538269,0,1.9076233,0,4.1506042c2.6433105-4.5171814,4.461792-8.10849,6.7198486-11.3978271
		c8.2583008-12.0291443,20.3688965-17.486618,34.3031006-19.6914062c2.6026611-0.4116821,5.2127686-0.7743683,7.8195801-1.1597443
		c3.9810791-0.5831604,7.9631348-0.5563049,11.9456787-0.0145264c33.4503174,3.693161,56.9918213,30.9296112,59.7047119,62.1904449
		c0.5289307,6.3091431,0.2677002,12.6313477,0.2751465,18.9472046c0.0330811,28.1334839,0.0092773,56.2668762,0.0074463,84.4003296
		c-0.0004883,6.4634399-0.0948486,6.5372009-6.8309326,6.5810852c-12.1490479,0.0790405-24.2993164-0.1639099-36.4453125,0.124176
		c-0.6427002,0.301178-1.1860352,0.1721802-1.6276855-0.385498c-0.057251-32.2459717-0.114502-64.4919128-0.171875-96.7378845
		C1833.3647461,307.1060791,1834.4929199,304.4776306,1833.5384521,302.0663452z"/>
	<path style="fill:#FFFFFF;" d="M528.0455322,234.4149933c14.7987671,2.4142456,28.5940552,7.3408508,40.840271,16.2091675
		c7.0259399,5.0878906,13.2373657,10.9828644,18.4955444,17.9056854c1.2674561,1.6686096,1.2253418,2.2792358-0.8170166,3.133667
		c-12.0531616,5.041626-24.05896,10.1976318-36.0411987,15.4061279c-1.5222778,0.6617432-2.435791,0.3796997-3.4539185-0.7667847
		c-21.4282227-24.12854-59.8414917-14.7976379-69.6455383,21.227478
		c-6.4224854,23.5996094,4.2124634,49.1493225,24.2531433,58.8335571
		c14.6363525,7.0726318,31.8101807,4.0093079,43.9660034-8.2380676c2.4500732-2.4685364,4.2108154-2.6941528,7.2229614-1.3443909
		c10.5872803,4.7442017,21.2576294,9.3147278,32.0073242,13.678009c3.4874878,1.4154968,3.5916748,2.5788269,1.354248,5.4235229
		c-37.7241211,47.9623718-113.742157,42.2052002-143.9944763-10.9677734
		c-30.086853-52.8822021,1.129364-119.1407471,61.003418-129.4976044c1.6308594-0.2820587,3.2427979-0.6736603,4.8635559-1.0142517
		C514.7487183,233.8544159,521.3973389,233.8273163,528.0455322,234.4149933z"/>
	<path style="fill:#FFFFFF;" d="M247.2307892,323.4319153c5.7167816-12.3426208,11.336441-24.4916992,16.9698944-36.6342773
		c7.2538452-15.6353455,14.6188965-31.2205658,21.6915588-46.937439c1.3555908-3.0123444,2.7831116-4.2521515,6.2017517-4.2006378
		c13.9142456,0.2097473,27.8334351,0.087326,42.4634399,0.087326
		c-29.3266296,63.427002-58.3661499,126.2332764-87.7337952,189.7490845
		c-29.3641205-63.4955444-58.4009094-126.2833862-87.7441254-189.7337036c15.3019257,0,30.0179291,0.040329,44.7332764-0.0386963
		c2.5387726-0.0136719,2.7972107,1.8334503,3.5370178,3.4297638c12.2665405,26.4671478,24.5397491,52.9312592,36.7975464,79.4024506
		C244.8903961,320.1605225,245.4116211,321.8834534,247.2307892,323.4319153z"/>
	<path style="fill:#FFFFFF;" d="M667.0198364,408.6534729c-8.6915283-0.7267456-16.812439-2.5558777-24.1442871-8.0266418
		c-10.6934204-7.979126-14.5996704-19.0589294-15.8511963-31.4462585
		c-2.2140503-21.9137878-0.5526733-43.9151917-0.9680176-65.8740234
		c-0.1574707-8.3239441-0.1522827-16.6567688,0.0505371-24.9789124c0.0732422-3.0061951-0.6426392-4.0854797-3.828186-3.9557495
		c-6.3158569,0.2571716-12.6495972,0.0770264-18.9759521,0.0776367c-0.2293701-0.2402649-0.647644-0.4840698-0.645874-0.7270203
		c0.0898438-12.3926086-0.6919556-24.7946777,0.3690796-37.1770325l0.0022583-0.0045166
		c0.5206299-0.3186188,1.0648193-0.3654938,1.6325684-0.1421356c6.8213501-0.2124939,13.7099609,1.2321167,20.4573364-0.8404388
		c0.9329224-13.2827454,0.1212158-26.5781708,0.4692993-39.859375c0.0437012-1.6641083-1.0240479-3.6540985,0.8834229-5.0345001
		c12.9748535,0.0735931,25.9545288,0.3738403,38.9221191,0.1017303c4.7355347-0.09935,5.6802368,1.4520416,5.6539917,5.8864746
		c-0.0766602,12.9593048-0.6420898,25.9323883,0.2816772,38.8867493c0.2650146,0.394043,0.6119995,0.6931915,1.0519409,0.8934174
		c11.0751953,0.1697083,22.1390381,0.2584991,33.2026978-0.0506592c0.555542-0.2915802,0.9988403-0.1703796,1.3302612,0.360611
		c-0.0473022,10.9719849-0.2166748,21.9455261-0.0723877,32.9150085c0.0473633,3.5997314-0.8912354,4.9886169-4.7440796,4.8756409
		c-9.1339722-0.2678223-18.284729,0.0622559-27.4207153-0.1666565c-3.1625977-0.0792236-3.8208008,0.8947754-3.8065186,3.9042358
		c0.1183472,24.9399414,0.1740723,49.8814392,0.0049438,74.8207703
		c-0.0810547,11.9560242,4.6768188,18.6086426,18.6682129,16.6661072c0.8203125-0.1138611,1.6403198-0.2295532,2.4604492-0.3443604
		c1.5809937-0.9324646,3.5159912,0.2448425,5.069519-0.8511047c3.4525146,0.2865601,6.2480469-2.6650085,9.7802124-1.9856567
		c1.3470459,4.5192566,0.5454712,9.1469421,0.5447998,13.7105103c-0.0010986,7.405365,0.5778198,14.8298645-0.3601685,22.2218933
		c-4.6133423,2.9155884-9.9251709,3.7745667-15.0710449,5.1222534c-1.6883545,0.8571777-3.6408081-0.0962219-5.3266602,0.777771
		c-1.5584717,0.0891113-3.1169434,0.1782227-4.675354,0.2673035
		C676.9822388,409.199707,672.0005493,409.2327271,667.0198364,408.6534729z"/>
	<path style="fill:#FFFFFF;" d="M962.6554565,280.5367737c2.7908936-12.2609863,9.1011963-22.2816467,17.9017944-31.3217621
		c9.3293457-9.5832367,20.7634277-13.1216278,33.2956543-14.8269806c4.3141479-0.5215912,8.6282349-0.529892,12.9420166,0.005127
		c9.939209,0.8197479,9.960083,0.819809,9.9362793,10.642395c-0.0247803,10.161087-0.0959473,20.322113-0.1467285,30.4831238
		c-1.8442383,1.6025391-4.0809326,0.869751-6.1595459,1.0054626c-7.1860352,0.4694214-14.4379272-0.8959656-21.5825806,0.7714844
		c-19.4940186,5.2463379-33.5353394,17.1822815-42.4695435,35.1178589
		c-2.4598389,4.9381409-4.6939087,10.1159973-4.6036987,15.8765259c-0.8223267,1.7458801-0.399231,3.6009827-0.4115601,5.4005737
		c-0.1633911,23.9096375,0.2511597,47.821106-0.2299194,71.7289734c-1.6607666,1.5275879-3.7285767,1.0587158-5.6600952,1.0792236
		c-12.6856079,0.1343689-25.3733521-0.1822815-38.0592651,0.172699c-0.7214355,0.315094-1.199646,0.0974121-1.4351807-0.652832
		c0.1174927-3.1376343,0.335022-6.275177,0.3375854-9.4128723c0.0423584-51.7158508,0.0613403-103.4317322,0.0614624-155.1476135
		c0-1.478714-0.2644043-2.957428-0.4055176-4.436142c0.1380615-0.5275116,0.4772339-0.7548218,1.0180664-0.6832428
		c2.2178345,0.3598022,4.4195557,0.3223419,6.6062622-0.2580261c0.84198-0.0200043,1.6367188,0.2232971,2.4533081,0.3836823
		c9.6467896,0.1954041,19.2861328,0.0054169,28.9240723,0.1075745c1.94104,0.0205688,4.0297852-0.5083923,5.71875,1.0267029
		l0.3378296-0.0892181c0.5145874,14.0019836,0.5182495,28.0039062-0.0016479,42.0058289
		c0.0049438,0.3406372,0.0098877,0.6813049,0.0148315,1.0219421
		C961.5774536,281.3734436,962.1165771,281.3360291,962.6554565,280.5367737z"/>
	<path style="fill:#FFFFFF;" d="M1053.6881104,306.5552673c3.1977539-13.5278931,11.5498047-22.6720886,24.0460205-28.2915955
		c0.5533447-1.1252441-0.2432861-1.3982849-1.0593262-1.6642761c-7.6439209,0.0589294-15.2822266-0.3891602-22.916626,0.157074
		c-0.5148926-0.0221558-0.8070068-0.2881775-0.87854-0.7962036c0.5535889-12.9977417,0.5081787-25.9957886,0.0196533-38.9940948
		c0.2663574-0.6778717,0.7322998-0.8693085,1.3966064-0.575531c11.9007568,0.2722321,23.8029785,0.250946,35.7011719,0.0098877
		c1.0777588-0.3561401,2.1922607-0.359375,3.3084717-0.3090973c1.6762695,0.7505646,3.7800293-0.0413055,5.2579346,1.4454651
		c0.0592041,8.6557007,0.1660156,17.3113403,0.1699219,25.967041c0.020874,47.6332703,0.0167236,95.266449,0.0212402,142.8997192
		c-0.5256348,0.3861694-1.0941162,0.4654236-1.7056885,0.2383423c-14.2714844-0.1867981-28.5427246-0.2523804-42.8148193,0.0354004
		c-0.7017822,0.2936707-1.1448975,0.0714722-1.3305664-0.6646118c0.100708-18.571106,0.262085-37.1422119,0.2810059-55.7133789
		c0.0129395-12.7652283-0.1716309-25.5305176-0.2680664-38.2958374
		C1053.7423096,310.2680664,1052.8730469,308.2922974,1053.6881104,306.5552673z"/>
	<path style="fill:#FFFFFF;" d="M361.2850952,405.5119324c-0.0404663-31.7781067-0.5535278-63.5657959,0.0960693-95.3298035
		c0.2858582-13.976593,9.6274414-23.1341553,21.0713501-30.1423645c1.3480835-0.825531,3.8668518-0.7091064,3.6176453-3.361908
		c-5.1302185-1.4312744-10.3699341-0.2634277-15.5429688-0.6577148c-3.0768433-0.2344666-6.2073975,0.5602722-9.2401123-0.4880981
		c-0.0036926-12.6598511-0.0073853-25.3196259-0.0111084-37.9794769c1.0492554-0.7302246,2.2492676-0.4799042,3.3935547-0.4814301
		c12.1513672-0.016037,24.3042908,0.0963593,36.4531555-0.0789642c3.3492126-0.0483246,5.0918579,0.7226715,4.5002747,4.3623047
		c-0.0791016,0.4866791-0.0107422,0.9972839-0.0107422,1.4968414c0,52.4518433,0.0021362,104.9036865-0.0027466,157.3555298
		c-0.0006104,6.5392151,0.5038757,5.775238-5.9757996,5.7911072c-11.1525574,0.0272827-22.3053284,0.0275879-33.4577942-0.0146484
		C364.545105,405.9771423,362.8408203,406.4150696,361.2850952,405.5119324z"/>
	<path style="fill:#FFFFFF;" d="M1718.4782715,237.5561066c-2.6787109,3.0601959-5.6998291,5.9985352-3.5528564,10.8749084
		c2.1462402-0.9121552,4.5354004-1.3475037,7.5341797,0.1703186c-7.7479248-0.0099335-5.9626465,5.2211151-5.9650879,9.3340607
		c-0.0247803,42.2194214-0.1116943,84.43927,0.0788574,126.6578369c0.0321045,7.1011353-3.4866943,13.7393494-2.0882568,20.9042358
		c0.2521973,0.2133484,0.3702393,0.4537354,0.3544922,0.7211609c-0.0163574,0.2809448-0.0577393,0.4214172-0.1240234,0.4223938
		c-0.3859863,0.2794495-0.7866211,0.3022766-1.2017822,0.069458c0.0018311-53.2321777,0.0004883-106.4644165,0.0134277-159.6965942
		c0.0008545-3.1547241,0.1149902-6.3094482,0.1765137-9.4641724
		C1715.296875,236.3274231,1716.8885498,236.2158051,1718.4782715,237.5561066z"/>
	<path style="fill:#FFFFFF;" d="M1955.3431396,191.6761322c-1.6607666,1.6056366-3.1920166-0.3025665-4.864502-0.2608337
		c-10.9779053,0.2740784-21.9677734,0.2535706-32.949585,0.0792847c-3.7327881-0.0592651-5.1540527,1.5540161-5.1418457,4.999649
		c0.003418,0.9989319-0.0042725,1.9978638-0.0042725,2.9967804c-0.0007324,66.5964508,0.0584717,133.1931305-0.1202393,199.7891083
		c-0.0135498,5.0644531,1.2415771,6.5653076,6.3444824,6.3644104c10.4691162-0.4122009,20.9659424-0.1521912,31.4510498-0.1047668
		c1.7817383,0.0080566,3.682373-0.526886,5.3151855,0.717041c-0.123291,0.1113892-0.2424316,0.3153381-0.3704834,0.3210144
		c-14.5386963,0.645752-29.0769043,0.8198853-43.612793-0.083313l0.0148926,0.0187988
		c-0.9591064-1.7189026-0.4825439-3.5886841-0.4832764-5.3802795c-0.0280762-68.3483582-0.032959-136.6968079,0.0291748-205.045105
		c0.0015869-1.8025818-1.0042725-3.9433594,0.9793701-5.4488068c12.7536621,0.0796967,25.5076904,0.1218109,38.260376,0.2837677
		C1951.8995361,190.9444885,1953.8265381,190.113205,1955.3431396,191.6761322z"/>
	<path style="fill:#FFFFFF;" d="M1326.7375488,393.5009155c-0.0040283,3.9972534-0.0080566,7.9944458-0.012085,11.9916687
		c4.2021484,1.1327209,8.4859619,0.4319458,12.7286377,0.5119019c10.3790283,0.1956482,20.7630615-0.1747131,31.1425781,0.1869202
		c0.3236084-0.0830688,0.6470947-0.1660461,0.9720459-0.250946c-0.6461182,1.9603882-2.322998,1.5657349-3.7545166,1.5682983
		c-12.6500244,0.0230103-25.3012695-0.0782471-37.949585,0.0750732c-3.3076172,0.0400696-4.2545166-1.1062317-4.2512207-4.3283691
		c0.0717773-69.5993652,0.0522461-139.198761,0.0689697-208.7981567c0.0003662-1.423111-0.4360352-3.1030273,1.480835-3.8232574
		c-1.2106934,3.6013794-0.5881348,7.2756653-0.4294434,10.9316559c0.7287598,1.4156799,0.4080811,2.9416962,0.4084473,4.4161377
		c0.0169678,61.0338745,0.0169678,122.0677795,0.0001221,183.1016541
		C1327.1419678,390.5583801,1327.4598389,392.0837708,1326.7375488,393.5009155z"/>
	<path style="fill:#FFFFFF;" d="M361.2850647,405.5119324c12.9841309,0.0010986,25.969635-0.1014099,38.9515076,0.0717163
		c3.5174561,0.046936,4.9802246-0.6721497,4.9709778-4.6299133c-0.1237183-52.9530334-0.1239624-105.9065857,0.0035095-158.8596344
		c0.009613-3.9825897-1.4863586-4.6580811-4.983551-4.612381c-12.9819641,0.1697693-25.9673767,0.0695038-38.9515381,0.0707245
		c0.5744019-2.2119293,2.4073486-1.2868958,3.6633911-1.2964172c12.4777832-0.0948334,24.9573669-0.0054321,37.4342041-0.1550751
		c2.9466248-0.0353241,3.9723816,0.6760406,3.9664612,3.8628082c-0.100708,54.2603912-0.0678101,108.5209808-0.0723877,162.7815704
		c-0.0001526,1.9103699,0.6031189,3.9677734-2.7435913,3.9327393c-13.4757996-0.1408997-26.9539795-0.0520935-40.4312744-0.0597839
		C362.2956848,406.6177979,361.3866882,406.696991,361.2850647,405.5119324z"/>
	<path style="fill:#FFFFFF;" d="M1911.9302979,190.6391144c-0.1989746,1.1303864-0.5717773,2.2606964-0.5718994,3.3910828
		c-0.0037842,70.827713,0.0228271,141.6553802,0.0466309,212.4831085c-1.6767578-1.4586487-0.9915771-3.4241638-0.9924316-5.1687622
		c-0.0343018-68.4735413-0.0374756-136.946991,0.0166016-205.4204712
		C1910.4306641,194.1176453,1909.3907471,191.8079376,1911.9302979,190.6391144z"/>
	<path style="fill:#FFFFFF;" d="M1835.414917,406.3047791c0.1506348-0.6971436,0.4532471-1.1602173,1.2911377-1.1512451
		c12.2780762,0.1319885,24.5614014,0.0804443,36.831665,0.4572754c4.1466064,0.1274109,4.9453125-1.4170837,4.9313965-5.1696167
		c-0.1213379-32.6791992-0.0817871-65.3590393-0.0427246-98.0386047c0.0023193-1.9402466-0.5883789-4.0020752,0.6813965-5.8139343
		c0.1422119,0.3230896,0.2843018,0.6463318,0.4266357,0.9696045c0.5126953,1.1054688,0.3427734,2.2846069,0.3430176,3.4371948
		c0.0079346,33.8793335,0.0097656,67.7586975-0.0075684,101.638031c-0.0007324,1.3019104,0.3181152,2.6696167-0.4799805,3.8835449
		l0.0057373-0.0065308c-9.9058838,1.1338501-19.845459,0.359436-29.7663574,0.4162598
		C1844.9033203,406.9538574,1840.0861816,407.8979797,1835.414917,406.3047791z"/>
	<path style="fill:#FFFFFF;" d="M1879.3898926,406.5170288c0.0482178-36.3195801,0.0963135-72.6392212,0.1445312-108.9587708
		c1.4449463,1.5535278,0.8353271,3.4760132,0.8371582,5.2339172c0.036377,32.8563538,0.0369873,65.712738-0.0021973,98.5690308
		C1880.3673096,403.101593,1881.039917,405.0555725,1879.3898926,406.5170288z"/>
	<path style="fill:#FFFFFF;" d="M1758.6091309,401.4978027c-0.0003662-29.3135376-0.0007324-58.6270447-0.0012207-87.9405212
		c1.2390137,1.2293701,0.8347168,2.8060913,0.8358154,4.2604065c0.0196533,26.4730835,0.0195312,52.9460754-0.0001221,79.4191589
		C1759.4425049,398.6912231,1759.8468018,400.2678223,1758.6091309,401.4978027z"/>
	<path style="fill:#FFFFFF;" d="M960.6865234,405.5222473c0.055542-23.4785461,0.0946045-46.9571533,0.1929932-70.4355164
		c0.0095215-2.279541-0.5747681-4.6870728,0.8896484-6.7963562c0.0276489,24.7010498,0.0597534,49.4024353,0.0716553,74.1038818
		c0.0007324,1.4530945,0.3532715,3.0247498-0.9533081,4.1972961c-0.1382446-0.1585693-0.2764893-0.3171082-0.4146729-0.4755859
		C960.5440063,405.9181213,960.6152344,405.7201538,960.6865234,405.5222473z"/>
	<path style="fill:#FFFFFF;" d="M626.4708252,190.664505c-1.008667,13.5485077-0.1312256,27.1175079-0.4641113,40.6725464
		c-0.0425415,1.7306213,0.7177124,3.6893005-0.9954224,5.1220703c-6.9921265,0.959259-13.9848633,0.9300232-20.9782715,0.0146332
		c-0.3349609,0.0223999-0.6698608,0.0447998-1.0048218,0.0671997c4.5906982-2.1146088,9.4360352-0.7788696,14.1528931-0.9439545
		c8.7595215-0.3065338,7.7915649,0.9881287,7.8269043-7.6563416c0.0441284-10.8122864-0.0272217-21.6251373,0.050354-32.4370575
		C625.0703735,193.8322906,624.1781616,191.7342834,626.4708252,190.664505z"/>
	<path style="fill:#FFFFFF;" d="M1681.2015381,243.5101471c0.0458984-5.9711761-3.6165771-6.2366486-8.3754883-6.0688171
		c-9.5687256,0.3372803-19.1640625,0.3071289-28.7348633,0.0026855c-4.0930176-0.1302338-6.9832764,0.4103241-7.4249268,5.0960693
		c-0.6937256-2.5182343-1.998291-5.1546631,1.3325195-6.8945618l0.0548096-0.0038452
		c12.6947021,0.9393616,25.4086914,0.1470642,38.1098633,0.4441986c1.7720947,0.0415039,3.6378174-0.540863,5.3140869,0.5408783
		C1681.385376,238.9212036,1681.293335,241.2156982,1681.2015381,243.5101471z"/>
	<path style="fill:#FFFFFF;" d="M2029.3792725,406.3573303c1.5656738-1.438324,3.4909668-0.8001709,5.2506104-0.8071899
		c13.6384277-0.0543823,27.2773438,0.0026245,40.9152832-0.0718994c1.769043-0.0096436,4.2390137,1.0361633,4.7875977-2.0554504
		c0.9829102,0.7003174,1.9658203,1.4007263,2.9487305,2.1010437c0.1418457,1.5408325-0.9892578,1.4728088-1.9519043,1.4640198
		c-17.3481445-0.1582642-34.7005615,0.3939209-52.0461426-0.2724304L2029.3792725,406.3573303z"/>
	<path style="fill:#FFFFFF;" d="M2068.6459961,235.6468658c-1.4528809,0.2747345-2.9057617,0.549469-4.3586426,0.8242035
		c-0.840332,0.7351227-1.8693848,0.5608978-2.8444824,0.5526581c-16.3825684-0.1385345-32.7678223,0.3135529-49.1484375-0.2331848
		l0.1000977-0.392395c0.8847656-0.997467,2.0767822-0.8594208,3.2232666-0.8573456
		C2033.2938232,235.5734558,2050.9699707,235.610672,2068.6459961,235.6468658z"/>
	<path style="fill:#FFFFFF;" d="M2029.2834473,406.7154236c16.3995361-0.0304565,32.7998047-0.0160522,49.1982422-0.164093
		c1.560791-0.0140991,3.6394043,1.2559204,4.7998047-1.0274963c0.6181641,3.3093567-1.9975586,1.9237671-3.1599121,1.9337769
		c-12.2231445,0.1057129-24.4489746,0.1805115-36.6704102,0.0065308
		C2038.7327881,407.3970947,2033.9227295,408.4428711,2029.2834473,406.7154236z"/>
	<path style="fill:#FFFFFF;" d="M1636.6716309,401.5288391c0.8309326,3.0382385,2.4954834,4.1991272,5.9388428,4.1065674
		c11.2410889-0.3019714,22.49646-0.1979675,33.7436523-0.053894c2.4980469,0.0319214,4.1030273-0.5810242,4.8310547-3.0102844
		c0.0854492,1.249939,0.1708984,2.5002136,0.2564697,3.7504578c-0.6120605,0.7174683-1.4447021,0.6811829-2.2756348,0.681366
		c-13.5898438,0.0031128-27.1795654,0.0057373-40.7694092,0.0015869c-0.6843262-0.0001831-1.3074951-0.1350708-1.8648682-0.5377197
		l0.0336914,0.039917C1635.8045654,404.8305359,1635.6176758,403.1664734,1636.6716309,401.5288391z"/>
	<path style="fill:#FFFFFF;" d="M1293.4239502,240.5173798c-0.835083-2.6779785-2.7667236-3.0547028-5.3289795-3.0318146
		c-13.0650635,0.1169891-26.131958,0.0481567-39.1981201,0.0443726c-0.3795166-0.1468964-0.5379639-0.3425446-0.4770508-0.5872498
		c0.0668945-0.2690125,0.1522217-0.4036865,0.2573242-0.4036865l0.0247803-0.0598145
		c9.6964111-0.9266052,19.4179688-0.1383972,29.1226807-0.4336395c3.7736816-0.1147919,7.5749512,0.4833832,11.321167-0.3999634
		C1290.7458496,237.1166077,1295.3951416,235.9079895,1293.4239502,240.5173798z"/>
	<path style="fill:#FFFFFF;" d="M1248.8840332,405.466217c12.9138184,0.0206909,25.828125,0.003418,38.7415771,0.1011353
		c2.048584,0.0155029,3.9001465-0.5441589,5.8028564-1.0646667c0.0718994,0.6184998,0.1437988,1.2373047,0.2155762,1.8560486
		c-1.1182861,1.0701904-2.5170898,0.6226501-3.791626,0.6261292c-12.4274902,0.0339966-24.8548584,0.0319214-37.2823486,0.0033569
		c-1.288208-0.0029297-2.6677246,0.37854-3.8371582-0.5518188
		C1248.6879883,406.0982056,1248.7382812,405.7748413,1248.8840332,405.466217z"/>
	<path style="fill:#FFFFFF;" d="M1052.9035645,406.0127869c0.3067627,0.120636,0.6251221,0.1840515,0.9547119,0.1902161
		c14.6356201-0.1612549,29.2722168-0.5153198,43.9040527,0.1912537c0.3306885,0.0031128,0.661499,0.0062256,0.9923096,0.0093994
		c-0.885376,1.3872375-2.3032227,1.109375-3.6008301,1.1106567c-12.8151855,0.0130005-25.6304932,0.0192261-38.4456787-0.0076294
		C1055.2874756,407.5036926,1053.6032715,407.9496765,1052.9035645,406.0127869z"/>
	<path style="fill:#FFFFFF;" d="M1053.8438721,236.7530212c-0.3299561,0.0025635-0.6446533,0.0731659-0.9443359,0.2124786
		c0.4986572-1.3889313,1.6774902-1.4218292,2.8614502-1.4220123c13.4537354-0.0020142,26.9075928,0,40.3613281-0.0007324
		c1.0198975,0,1.9953613,0.1016083,2.6496582,1.0334625c-1.6627197,0.6498718-3.31604,0.8133545-4.9493408-0.0939178
		c-1.0234375,0.0003052-2.0471191,0.0006104-3.0706787,0.0009766c-6.1859131,1.2560425-12.4366455,0.3950195-18.6530762,0.4927826
		C1066.0186768,237.0716858,1059.9212646,237.365036,1053.8438721,236.7530212z"/>
	<path style="fill:#FFFFFF;" d="M1713.4884033,236.5676117c0.7935791-1.1107178,1.980957-1.0282135,3.1361084-1.0283966
		c12.8912354-0.0020752,25.7823486-0.0021362,38.673584-0.0009766c1.1551514,0.0001221,2.3392334-0.0821381,3.1719971,0.9742737
		c-4.8936768,1.1253204-9.8612061,0.5060883-14.7807617,0.4600067
		C1733.6226807,236.8782959,1723.5411377,237.6326447,1713.4884033,236.5676117z"/>
	<path style="fill:#FFFFFF;" d="M915.9730225,406.0186462c0.3052368,0.1164246,0.6212158,0.1799011,0.9477539,0.1903381
		c14.6300049-0.123291,29.2622681-0.6235046,43.8861694,0.2667236c0,0,0.081665,0.1165161,0.0811157,0.1161499
		c-14.65802,1.8945923-29.3553467,0.8053589-44.039856,0.537323
		C916.5497437,407.1237488,916.2644653,406.4047546,915.9730225,406.0186462z"/>
	<path style="fill:#FFFFFF;" d="M1636.5317383,406.4669189c14.9699707-0.0483704,29.9399414-0.0967712,44.9099121-0.1451721
		c-0.6694336,1.2548828-1.8625488,1.1976929-3.0247803,1.1977539c-13.0848389,0.0009155-26.1696777-0.0018921-39.2545166-0.0019531
		C1638.1431885,407.5175476,1637.1741943,407.4047241,1636.5317383,406.4669189z"/>
	<path style="fill:#FFFFFF;" d="M1713.5137939,406.7104187c0.3209229-0.1088562,0.6417236-0.2177429,0.9627686-0.3265381
		c14.3171387-0.5746155,28.6342773-0.5906677,42.9512939,0.0075684c0.3331299,0.0018311,0.6660156,0.0036621,0.9991455,0.0054321
		c-0.723877,1.1876831-1.9095459,1.1236572-3.0657959,1.1238403c-13.0321045,0.001709-26.0640869,0.0004272-39.0961914,0.0021362
		C1715.265625,407.5229797,1714.2783203,407.4986267,1713.5137939,406.7104187z"/>
	<path style="fill:#FFFFFF;" d="M1835.414917,406.3047791c14.6602783,0.0685425,29.3205566,0.1371155,43.9807129,0.205658
		c-0.8100586,1.0942078-1.9993896,1.0105286-3.1575928,1.0106506c-12.7585449,0.0014038-25.5172119,0.0058594-38.2757568-0.006958
		c-1.2907715-0.0013428-2.7165527,0.261261-3.475708-1.2583008
		C1834.789917,406.3873596,1835.0994873,406.403717,1835.414917,406.3047791z"/>
	<path style="fill:#FFFFFF;" d="M1248.7329102,406.4364014c14.970459-0.0259094,29.9406738-0.0517883,44.9111328-0.0776672
		c-0.8430176,1.4256287-2.2580566,1.1544189-3.5489502,1.1557007c-12.5860596,0.0127563-25.1722412,0.0125732-37.7583008,0.0003052
		C1251.0435791,407.5134583,1249.6381836,407.7817383,1248.7329102,406.4364014z"/>
	<path style="fill:#FFFFFF;" d="M1713.4884033,236.5676117c14.993042-0.7530518,29.9871826-0.6613922,44.9818115-0.0550385
		c-0.0001221-0.000061,0.0126953,0.0315552,0.0126953,0.0315552c0.288208,0.2951813,0.3516846,0.5414734,0.1916504,0.739502
		c-0.1398926,0.1730652-0.2757568,0.2599792-0.4086914,0.2599792c-13.2625732,0.0040894-26.5251465,0.0081635-39.7875977,0.0123749
		c-1.5915527-0.0021362-3.1829834-0.0043335-4.7745361-0.0064545
		C1713.631958,237.2223053,1713.5603027,236.8949585,1713.4884033,236.5676117z"/>
	<path style="fill:#FFFFFF;" d="M916.914856,236.7959747c-0.3303223,0.0129395-0.6461182,0.0875702-0.9477539,0.2249451
		c0.4620972-1.4044495,1.6275635-1.4765778,2.821228-1.4765167c13.2937622,0.0006714,26.5877075-0.0111694,39.8812256,0.0481415
		c0.7315674,0.0032349,1.4604492,0.6037292,2.1906128,0.9261932c-11.9926758,0.8057861-23.9846191,0.9145355-35.9755249-0.0377197
		c-0.6768799,0.0003662-1.3536377,0.0007324-2.0305176,0.0010376
		C920.9207764,237.4652405,918.9129639,237.0384369,916.914856,236.7959747z"/>
	<path style="fill:#FFFFFF;" d="M1911.3901367,406.4945068c14.6616211,0.053772,29.3255615,0.5301819,43.9830322-0.2376404
		c0.3060303,0.0780029,0.6062012,0.0597534,0.9003906-0.0548401c-0.5748291,1.3391418-1.7657471,1.316925-2.9360352,1.3170471
		c-13.0986328,0.0013428-26.1971436-0.0012817-39.2957764-0.0010376
		C1913.0238037,407.5180359,1912.050415,407.4154053,1911.3901367,406.4945068z"/>
	<path style="fill:#FFFFFF;" d="M1681.4775391,236.6267548c-10.1942139-1.1346588-20.4233398-0.1591034-30.6293945-0.5131073
		c-4.2629395-0.1478577-8.557251,0.5225677-12.7915039-0.470993c13.2685547-0.0358276,26.5401611-0.0756683,39.8116455-0.0975189
		C1679.1634521,235.5429993,1680.5720215,235.2769318,1681.4775391,236.6267548z"/>
	<path style="fill:#FFFFFF;" d="M961.0232544,279.5153198c0.0005493-14.0019836,0.0010986-28.0039062,0.0016479-42.0058289
		c1.2752075,1.4200134,0.8027344,3.1626587,0.8082275,4.7794037c0.0365601,10.8191376,0.0388184,21.638443-0.0025024,32.4575653
		C961.8244629,276.3566284,962.3369751,278.1061707,961.0232544,279.5153198z"/>
	<path style="fill:#FFFFFF;" d="M1289.145752,235.6455231c-11.6691895,1.0877838-23.366333,0.1777039-35.0458984,0.4998627
		c-1.8011475,0.0496674-3.598877,0.2198792-5.3980713,0.3341064c1.0076904-1.1911621,2.395752-0.9375305,3.6933594-0.9350281
		C1264.6452637,235.5681458,1276.8955078,235.6093292,1289.145752,235.6455231z"/>
	<path style="fill:#FFFFFF;" d="M603.0259399,236.5454712c0.0924072,12.6348267,0.1848145,25.2695923,0.2769775,37.9042358
		c-1.3150024-0.6053772-1.2684326-1.8000183-1.2686768-2.9631653c-0.0021973-10.7576904,0.0008545-21.5152893-0.000061-32.2729645
		C602.0340576,238.1981049,602.1352539,237.2266388,603.0259399,236.5454712z"/>
	<path style="fill:#FFFFFF;" d="M706.9135132,236.7428284l-0.4396973-0.1269379l-0.4543457,0.0544891
		c-11.5611572,0.3984985-23.1242676,1.0124207-34.6698608-0.3131104c-0.0241089-0.2721863-0.0311279-0.5447845-0.0209961-0.8178101
		c10.2039795-0.0007324,20.4081421-0.0373535,30.6116943,0.0333252
		C703.6331787,235.5844879,705.6298218,234.7971954,706.9135132,236.7428284z"/>
	<path style="fill:#FFFFFF;" d="M707.0377808,402.5092163c-0.0617676-11.9776306-0.1234131-23.9552002-0.1848755-35.9326477
		c0.1288452,0.1034241,0.3606567,0.1968689,0.37146,0.3112183
		C708.3451538,378.7671814,708.7211914,390.6440735,707.0377808,402.5092163z"/>
	<path style="fill:#FFFFFF;" d="M924.8846436,236.4810181c11.9923096-0.4083862,23.9842529-0.4751434,35.9755249,0.0377808
		c-0.0576172,0.3599243-0.1153564,0.719986-0.1730957,1.0799103c-10.2369995-0.0176392-20.4743042-0.0020752-30.7108154-0.0853119
		C928.2540283,237.4994202,926.293335,238.2159271,924.8846436,236.4810181z"/>
	<path style="fill:#FFFFFF;" d="M1008.8423462,277.2956848c0.6964111-2.6553345,2.8886108-1.6946106,4.5066528-1.7147522
		c7.7442627-0.0963745,15.4902344-0.0544434,23.2354736-0.0619507c0.1488037,0.2948303,0.2191162,0.6075745,0.2113037,0.9380188
		c-5.9888916,1.2652588-12.0506592,0.22995-18.0682983,0.5731812c-2.4422607,0.1392517-4.9202881-0.3908081-7.3283081,0.3880615
		C1010.546936,277.3773499,1009.6945801,277.3365173,1008.8423462,277.2956848z"/>
	<path style="fill:#FFFFFF;" d="M92.2812271,39.6054802c-4.6137543,4.8509331-9.1047745,6.2709084-12.2210922,3.8639336
		C83.9191589,41.5030746,88.0693436,40.4566345,92.2812271,39.6054802z"/>
	<path style="fill:#FFFFFF;" d="M1078.7288818,276.6918945c-0.0233154,0.7191467,0.0477295,1.4981384-0.994751,1.5717773
		c-6.661499-1.6226501-13.4316406-0.2518311-20.1318359-0.7449951c-1.6697998-0.1227722-3.7647705,0.8200684-4.7214355-1.5565796
		c0.2877197,0.1030579,0.5855713,0.1619568,0.8925781,0.1747742
		C1062.0917969,276.3252563,1070.4364014,275.3350525,1078.7288818,276.6918945z"/>
	<path style="fill:#FFFFFF;" d="M1758.2657471,237.5436096c0.0722656-0.3332062,0.1446533-0.6664124,0.217041-0.9995422
		c2.0777588,3.507019,0.901123,7.3451691,0.869751,10.9869385c-0.0428467,4.9863586,1.0922852,10.0741882-0.7375488,14.9799805
		C1758.4986572,254.1884918,1758.3822021,245.8660431,1758.2657471,237.5436096z"/>
	<path style="fill:#FFFFFF;" d="M361.2870789,275.5320435c6.7518311,0.0024414,13.5040894-0.0315552,20.2553101,0.03479
		c1.5561829,0.0153198,3.3588257-0.6188049,4.5281677,1.1114502c-6.9766846-0.035675-13.9541626-0.0141602-20.9282227-0.1578674
		C363.8611755,276.4941101,362.1479492,277.4505615,361.2870789,275.5320435z"/>
	<path style="fill:#FFFFFF;" d="M1011.3991699,277.4181824c5.9429932-1.8034973,12.0254517-0.4571533,18.0341797-0.7867432
		c2.4499512-0.1344604,4.9080811-0.1207275,7.3624268-0.1743774c-2.4401855,2.1756287-5.3743896,0.9351807-8.0554199,1.0179749
		C1022.9660034,277.6532898,1017.1802368,277.4596558,1011.3991699,277.4181824z"/>
	<path style="fill:#FFFFFF;" d="M1427.5800781,234.8861847c-6.9594727,1.1065674-13.9204102,1.0590973-20.8828125,0.0251923
		c0.65271-0.1750183,1.305542-0.3499756,1.958374-0.5250549c5.9833984-0.502243,11.9660645-0.5845032,17.9472656,0.0342865
		C1426.9287109,234.5758057,1427.2543945,234.7309875,1427.5800781,234.8861847z"/>
	<path style="fill:#FFFFFF;" d="M528.0455322,234.4149933c-6.6485596-0.0038452-13.2972412-0.0077515-19.9457397-0.0116577
		C514.7492065,233.0029907,521.3978271,232.9871216,528.0455322,234.4149933z"/>
	<path style="fill:#FFFFFF;" d="M815.9034424,234.4149933c-6.6490479-0.0007324-13.2980347-0.0014038-19.9470825-0.0020752
		C802.6055908,232.9937744,809.2545776,232.9906616,815.9034424,234.4149933z"/>
	<path style="fill:#FFFFFF;" d="M1599.5157471,234.4095001c-5.9821777-0.0039062-11.9645996-0.0078735-17.9468994-0.0118408
		C1587.552124,233.0198822,1593.5344238,233.0048218,1599.5157471,234.4095001z"/>
	<path style="fill:#FFFFFF;" d="M1636.6715088,401.5288391c-0.0352783,1.6593018-0.0706787,3.3186646-0.1062012,4.9779358
		c-2.0964355-2.819397-0.5810547-6.0560608-1.0463867-9.0639038c-0.3134766-2.0258789,0.8427734-4.3461304-1.2050781-6.0248718
		c0.2424316-0.8355713,0.8527832-1.3952332,1.6470947-1.4148254c0.2248535-0.0055542,0.4746094,1.0041809,0.7127686,1.5482788
		c0.5126953,1.9835815,0.5238037,3.9666138-0.0070801,5.9489746
		C1636.6682129,398.8432312,1636.6699219,400.1860352,1636.6715088,401.5288391z"/>
	<path style="fill:#FFFFFF;" d="M1211.7039795,234.4030914c-5.9805908-0.0001831-11.9611816-0.0003662-17.9417725-0.0005493
		C1199.7429199,233.0131226,1205.7233887,233.0128784,1211.7039795,234.4030914z"/>
	<path style="fill:#FFFFFF;" d="M1426.6029053,234.4206085c-5.9822998-0.0114746-11.9648438-0.0228882-17.9472656-0.0342865
		C1414.6407471,233.0320892,1420.623291,232.9932251,1426.6029053,234.4206085z"/>
	<path style="fill:#FFFFFF;" d="M1637.9987793,235.6455231c-2.6660156,1.8685455-1.2235107,4.5315857-1.3325195,6.8945618
		c-0.0596924,1.8982086,0.0068359,3.8112335-0.2141113,5.6904602c-0.2232666,1.8984528-1.1228027,1.5241241-2.0367432,0.366272
		c2.1730957-2.8132172,0.7067871-6.0683899,1.0783691-9.1005096
		C1635.7084961,237.7438354,1635.1142578,235.6053009,1637.9987793,235.6455231z"/>
	<path style="fill:#FFFFFF;" d="M1511.4436035,313.5569153c0.0001221,5.3176575,0.0002441,10.6353149,0.0004883,15.9530029
		C1510.0667725,324.1922302,1510.067627,318.8745728,1511.4436035,313.5569153z"/>
	<path style="fill:#FFFFFF;" d="M667.0198364,408.6534729c4.9816284,0.0076904,9.9633179,0.0153809,14.9449463,0.0230713
		C676.980957,410.0535278,671.9992065,410.0880127,667.0198364,408.6534729z"/>
	<path style="fill:#FFFFFF;" d="M1026.7949219,234.393158c-4.3140259-0.001709-8.6281128-0.003418-12.9421387-0.005127
		C1018.1674194,233.0217133,1022.4815063,233.0179901,1026.7949219,234.393158z"/>
	<path style="fill:#FFFFFF;" d="M97.2978516,101.5576553c4.3756714,0.4763031,3.9399719,3.2001572,2.8976898,6.2074432
		C98.9867554,105.8095016,97.4746399,103.9954529,97.2978516,101.5576553z"/>
	<path style="fill:#FFFFFF;" d="M799.9578857,408.6871643c3.9807129,0.0006714,7.9614868,0.0012817,11.9420776,0.0019531
		C807.9190674,410.019043,803.9383545,410.0241089,799.9578857,408.6871643z"/>
	<path style="fill:#FFFFFF;" d="M1819.4031982,234.3980255c-3.9819336,0.0048828-7.9639893,0.0097046-11.9456787,0.0145264
		C1811.4376221,233.0170135,1815.4196777,233.0477753,1819.4031982,234.3980255z"/>
	<path style="fill:#FFFFFF;" d="M1205.0407715,408.6516418c-0.3133545-0.0923157-0.7088623-0.0964661-0.9230957-0.2956543
		c-0.4344482-0.4039917-0.3913574-0.8444214,0.3056641-0.8004761c3.4030762,0.2139587,6.8720703-0.691803,10.2119141,0.5909119
		c-0.9765625,0.1759338-1.953125,0.3518677-2.9298096,0.5278015
		C1209.4821777,409.1841125,1207.260376,409.2281494,1205.0407715,408.6516418z"/>
	<path style="fill:#FFFFFF;" d="M1123.6468506,315.5550232c0,3.9855957,0,7.9711304,0,11.956665
		C1122.2540283,323.5261536,1122.2542725,319.5405579,1123.6468506,315.5550232z"/>
	<path style="fill:#FFFFFF;" d="M1248.677124,236.5390015c0.0731201,0.3303833,0.1463623,0.6608429,0.2197266,0.9911194
		c-0.1134033,3.3303528-0.2265625,6.6608276-0.3399658,9.9913635
		C1247.2459717,243.8458557,1247.0548096,240.1824799,1248.677124,236.5390015z"/>
	<path style="fill:#FFFFFF;" d="M1189.78125,408.1975098c3.6658936-0.9002686,7.3221436-1.5837402,10.8563232,0.4827576
		c-2.2927246,0.514679-4.5849609,0.5180969-6.8770752-0.0043335
		C1192.434082,408.5164795,1191.107666,408.3570251,1189.78125,408.1975098z"/>
	<path style="fill:#FFFFFF;" d="M892.7871704,327.199646c-0.0010376-4.0623169-0.0020752-8.1246948-0.0031128-12.1870728
		c-0.8151245-1.7401123-0.0063477-3.7006226-0.7391968-5.4519653c-0.3831787-1.6000366-0.8168335-3.1898804-1.1419678-4.8016357
		c-4.4100952-21.8571167-15.2755737-39.6424561-33.1082153-53.1798859
		c-12.4711914-9.4672852-26.6652222-14.5267334-41.8912354-17.1640625
		c-6.6489258-0.5794678-13.2979736-0.574646-19.9470215-0.0020752c-5.3170776-0.0575562-10.2264404,1.8140259-15.2252808,3.2426147
		c-13.9450684,3.9850464-26.2388306,11.0604858-36.3193359,21.3560333
		c-8.5292358,8.7111206-15.1086426,18.9016113-19.8276367,30.3357544
		c-5.7832642,14.0127563-6.2685547,28.6776123-5.2677612,43.2739868c0.5848999,8.5296631,3.6459961,16.8964844,7.2004395,24.9420776
		c5.6295776,12.7427979,13.8918457,23.4963989,24.5027466,32.1703491
		c14.1268921,11.5480957,30.4037476,18.3790894,48.9382935,18.9534302
		c3.9806519,0.5213013,7.9613647,0.5177002,11.9421387,0.0019531c28.0735474-2.5814819,50.0005493-15.7235718,66.0123291-38.7694092
		c7.6130371-10.9573975,11.7008057-23.3869629,14.123291-36.4121094
		C892.8817139,331.4759521,891.8337402,329.2185059,892.7871704,327.199646z M824.756958,364.8363037
		c-15.4619141,9.2966919-35.1541748,5.8362427-47.6195068-7.8600464
		c-17.7883301-19.5449219-17.7089233-51.585144,0.1762695-71.0282593
		c19.8119507-21.5379028,52.5820923-15.2531128,65.6170654,12.5843506
		c3.3591919,7.1738892,5.0241699,14.8496094,5.0176392,26.8327637
		C847.2052002,339.8201294,840.9077148,355.1253662,824.756958,364.8363037z"/>
	<path style="fill:#FFFFFF;" d="M1796.1811523,273.4486389c3.5765381-1.3587952,7.1558838-1.2398682,10.739624-0.0214233
		C1803.3421631,273.4347229,1799.7617188,273.4416809,1796.1811523,273.4486389z"/>
	<path style="fill:#FFFFFF;" d="M1418.2141113,409.419342c2.7324219-0.9414368,5.557251-0.8628845,8.3841553-0.7587891
		C1423.9364014,410.3834839,1421.0141602,409.2249756,1418.2141113,409.419342z"/>
	<path style="fill:#FFFFFF;" d="M1407.6567383,408.6653137c2.8135986-0.0997009,5.6257324-0.1832581,8.3479004,0.7537842
		C1413.2177734,409.2294922,1410.3083496,410.3765259,1407.6567383,408.6653137z"/>
	<path style="fill:#FFFFFF;" d="M1496.4846191,317.8907166c-1.1154785-2.6986694-0.8435059-5.5256958-0.7698975-8.334259
		C1497.4587402,312.1970215,1496.2906494,315.1068726,1496.4846191,317.8907166z"/>
	<path style="fill:#FFFFFF;" d="M1495.7147217,333.510376c-0.0731201-2.8077393-0.3466797-5.6340027,0.7706299-8.3330688
		C1496.2901611,327.9596558,1497.4591064,330.869812,1495.7147217,333.510376z"/>
	<path style="fill:#FFFFFF;" d="M1833.5384521,302.0663452c1.3331299,2.3718872,0.8397217,4.9341736,0.7762451,7.4515381
		C1832.585083,307.1873779,1833.7145996,304.5588074,1833.5384521,302.0663452z"/>
	<path style="fill:#FFFFFF;" d="M1246.5137939,391.4289246c0.6833496-0.7260437,1.3935547-3.0457458,2.1400146-0.1555786
		c0.3388672,1.3121948-0.0441895,2.8109741-0.0997314,4.2250061
		C1247.1345215,394.5129089,1248.3256836,392.2176208,1246.5137939,391.4289246z"/>
	<path style="fill:#FFFFFF;" d="M1592.1503906,409.4139099c2.3803711-0.9836121,4.8768311-0.8136292,7.3635254-0.741333
		C1597.199585,410.3125305,1594.6136475,409.2531738,1592.1503906,409.4139099z"/>
	<path style="fill:#FFFFFF;" d="M1193.760498,408.6759338c2.2927246,0.0014648,4.5853271,0.0029297,6.8775635,0.0043335
		c0.1350098,0.2479553,0.2849121,0.4868164,0.4499512,0.7164307
		C1198.6345215,409.2737427,1196.0673828,410.299408,1193.760498,408.6759338z"/>
	<path style="fill:#FFFFFF;" d="M1205.0407715,408.6515808c2.2215576,0.0075684,4.4431152,0.0150757,6.6646729,0.022644
		c-2.3305664,1.6339111-4.9200439,0.5944519-7.3988037,0.7163086
		C1204.5501709,409.1441956,1204.7954102,408.8978882,1205.0407715,408.6515808z"/>
	<path style="fill:#FFFFFF;" d="M1581.5692139,408.674469c2.4967041-0.0471191,5.0085449-0.2462463,7.4044189,0.7405396
		C1586.4992676,409.2470093,1583.8986816,410.3169861,1581.5692139,408.674469z"/>
	<path style="fill:#FFFFFF;" d="M1374.2801514,247.5326538c-0.6195068,0.9630585-1.3693848,2.2389221-2.5599365,1.7386932
		c-0.9522705-0.4002075-0.3310547-1.7466278-0.1988525-2.6848907
		C1372.44104,246.9019012,1373.3605957,247.2172699,1374.2801514,247.5326538z"/>
	<path style="fill:#FFFFFF;" d="M1248.5531006,399.544342c-0.0029297,2.0040894-0.0059814,4.0081787-0.0090332,6.0122681
		C1247.2982178,403.5506287,1247.2420654,401.5464172,1248.5531006,399.544342z"/>
	<path style="fill:#FFFFFF;" d="M892.0356445,333.5076294c-0.1349487-2.1477356-0.1779175-4.2845459,0.7516479-6.3066406
		C892.6591187,329.316925,893.6015015,331.5617676,892.0356445,333.5076294z"/>
	<path style="fill:#FFFFFF;" d="M697.072937,368.5624695c-1.5214233,1.2871399-3.3179321,0.9353333-5.069519,0.8511047
		C693.4893799,367.9147949,695.362793,368.7252808,697.072937,368.5624695z"/>
	<path style="fill:#FFFFFF;" d="M425.5033569,27.7156258c-1.1849976,1.2513943-2.7679443,1.4860687-4.3565063,1.7063103"/>
	<path style="fill:#FFFFFF;" d="M686.6400757,408.4092407c1.6570435-1.0715332,3.4993286-0.8732605,5.3266602-0.777771
		C690.375,409.1509705,688.4428711,408.3370667,686.6400757,408.4092407z"/>
	<path style="fill:#FFFFFF;" d="M1053.6881104,306.5552673c0.0836182,1.8627319,0.1617432,3.724762-0.7712402,5.4459229
		C1053.0087891,310.164093,1052.1585693,308.1910706,1053.6881104,306.5552673z"/>
	<path style="fill:#FFFFFF;" d="M962.6554565,280.5367737c-0.0925293,1.0831909,0.1641235,2.6903687-1.3254395,2.5929871
		c-0.77948-0.0509033-0.4249268-1.6580811-0.2919312-2.5924988
		C961.5772095,280.5370789,962.116333,280.5368958,962.6554565,280.5367737z"/>
	<path style="fill:#FFFFFF;" d="M1093.8226318,236.4822998c1.6574707-0.3676147,3.3095703-0.4601898,4.9493408,0.0939178
		c0.0008545,0.3355865-0.0686035,0.6558533-0.2084961,0.9607391
		C1096.9581299,237.298645,1095.0898438,238.242157,1093.8226318,236.4822998z"/>
	<path style="fill:#FFFFFF;" d="M892.7840576,315.0125732c-0.9776001-1.7181091-0.8702393-3.5834961-0.7391357-5.4519653
		C893.5145874,311.2119446,892.6859131,313.1751404,892.7840576,315.0125732z"/>
	<path style="fill:#FFFFFF;" d="M1496.4853516,325.1757202c-0.0002441-2.4282837-0.0004883-4.8566284-0.0006104-7.2849731
		c-1.0391846-2.7057495,0.1945801-5.6216431-0.7700195-8.3342896c-0.3674316-1.0845947-0.9337158-2.1444702-1.0722656-3.2575684
		c-2.2686768-18.2321777-10.2027588-33.8621826-22.3631592-47.3183594
		c-11.9776611-13.2536163-27.0194092-21.223465-44.6990967-24.0943756
		c-6.961792-0.5997314-13.9226074-0.4141235-20.8830566,0.0251465
		c-12.0096436,1.1124268-22.5356445,6.0384521-32.4169922,12.6213379c-1.5385742,1.4908447-1.9904785-0.1893921-2.7587891-0.946106
		c-0.1090088-16.7075195-0.4422607-33.4185181-0.1873779-50.1204224c0.0744629-4.8774414-1.5797119-5.7319946-5.9086914-5.6751709
		c-12.7507324,0.1672363-25.5068359-0.0753784-38.2609863-0.1574707c-1.9936523,3.5665894-0.6484375,7.37323-0.7943115,11.071228
		c0.4510498,1.8023682,0.2973633,3.6420898,0.2977295,5.4678955c0.0089111,60.2604523,0.0089111,120.5209503-0.0003662,180.7813873
		c-0.0003662,1.8251343,0.1608887,3.6660767-0.3178711,5.4674072c-0.0882568,4.1329346-0.6407471,8.2770996,0.3441162,12.3786011
		c1.8297119,1.1325073,3.8673096,0.6758423,5.8172607,0.6969604c12.5708008,0.1358643,25.1439209-0.1757812,37.7130127,0.1691895
		c0.7366943,0.2930908,1.1859131,0.0510864,1.3461914-0.7275391c-1.2200928-5.1150513-0.4053955-10.2532349-0.621582-16.8269653
		c10.3677979,11.819397,22.1765137,18.4141235,36.708252,19.5537109c2.7229004,0.9215088,5.6368408-0.2756348,8.3499756,0.7538452
		c0.7359619-0.3973999,1.4718018-0.4182129,2.2075195,0.0001831c2.7247314-1.0266724,5.6505127,0.1699829,8.3840332-0.7588501
		c1.4188232-0.3752441,2.8221436-0.828125,4.2589111-1.1142578c27.9776611-5.5690918,45.7905273-23.321167,57.5554199-48.2074585
		c3.862915-8.1710815,5.3417969-17.0836182,7.302124-25.8284302
		C1496.6796875,330.7976685,1495.4448242,327.8814697,1496.4853516,325.1757202z M1430.4168701,364.1865845
		c-4.6362305,3.0996704-9.8291016,4.6675415-15.0710449,6.2022095c-3.5544434,1.0315552-7.1204834,0.8840942-10.692627,0.1043091
		c-15.2941895-2.6524658-26.0855713-10.8984375-31.637085-25.5845337
		c-2.6134033-6.9130859-3.7227783-14.1448975-3.8302002-21.4852905c-0.1444092-9.8773193,1.1030273-19.5211792,5.3686523-28.6295166
		c10.2365723-21.8577271,37.173584-29.0700684,56.8605957-15.1427002
		C1458.4127197,298.7501221,1457.8319092,345.8569946,1430.4168701,364.1865845z"/>
	<path style="fill:#FFFFFF;" d="M1326.7375488,393.5009155c-0.0737305-1.1568604-0.211792-2.3137207-0.2119141-3.4705811
		c-0.010498-61.6644897-0.010498-123.3288879-0.0002441-184.9933624c0.0002441-1.1571045,0.1358643-2.314209,0.208374-3.4712677
		c1.5532227,1.5111847,0.9090576,3.4528961,0.9100342,5.2045898c0.0332031,60.5084534,0.0330811,121.0169678-0.0003662,181.5254211
		C1327.6424561,390.0469971,1328.2901611,391.9887085,1326.7375488,393.5009155z"/>
	<path style="fill:#FFFFFF;" d="M1370.5966797,406.1914673c-14.3392334,0.908905-28.6899414,0.2811279-43.0355225,0.2767334
		c-0.2788086-0.0001221-0.557251-0.6356812-0.8356934-0.9752502c12.8616943,0.0097046,25.7233887-0.0009155,38.5848389,0.0541382
		C1367.078125,405.554657,1368.9534912,405.0284424,1370.5966797,406.1914673z"/>
	<path style="fill:#FFFFFF;" d="M1404.6531982,370.4930725c3.5643311-0.034729,7.12854-0.069458,10.692749-0.104248
		c0.6568604,0.0888062,1.3139648,0.1777039,1.9709473,0.2666321
		C1413.0858154,371.005188,1408.8376465,372.7167664,1404.6531982,370.4930725z"/>
	<path style="fill:#FFFFFF;" d="M1681.3919678,265.4380493c-0.0029297-7.3093262-0.1239014-14.6186066-0.1904297-21.9279327
		c-0.4954834-6.9524536-0.4954834-6.9579468-7.7440186-6.9586792c-10.5961914-0.0010986-21.1933594,0.0718994-31.788208-0.0413818
		c-3.480835-0.0372314-5.4025879,1.0866089-5.213623,4.7970581c-0.5130615,1.7380371-0.364624,3.5175171-0.4466553,5.28302
		c-0.0452881,0.9716797,0.3928223,2.505249-1.5936279,2.0067139c-10.5700684-7.3460693-22.3094482-11.8137207-34.8996582-14.1873169
		c-5.9818115-0.5808105-11.9642334-0.552002-17.9468994-0.0118408c-2.1066895,0.4081421-4.2113037,0.8284912-6.3206787,1.22229
		c-18.0500488,3.3701172-32.5610352,12.9776001-43.8094482,26.9411163
		c-11.8654785,14.7296753-18.9431152,31.7957153-19.9951172,50.9958496
		c-0.5720215,5.317627-0.5732422,10.6353149,0.0004883,15.9528809c0.321167,11.4603271,3.4790039,22.307251,8.4855957,32.4127197
		c12.7327881,25.7011108,32.1899414,42.9180298,61.6395264,46.7519531c2.4077148,0.8590698,5.0096436-0.223938,7.4068604,0.7409058
		c1.0579834-0.4412231,2.1160889-0.4199219,3.1743164-0.0014648c2.3814697-0.9736328,4.9715576,0.1273193,7.3635254-0.741333
		c13.5233154-1.8701782,25.1098633-7.6487427,34.8000488-17.2546387c1.05896-0.5592651,1.7938232-0.3817139,2.0407715,0.8835449
		c0.3677979,2.0702515,0.1516113,4.1260376-0.3234863,6.1602173c0.0045166,1.3560181-0.0513916,2.7258911,0.3962402,4.038269
		c0.0726318,2.9072876,1.59729,4.0359497,4.4667969,4.0275879c11.9832764-0.0348511,23.9675293-0.0648193,35.9504395,0.0188599
		c2.9099121,0.0203247,4.3919678-1.0101929,4.3404541-3.9755249c0.0721436-1.9890747,0.206543-3.9780884,0.2071533-5.9671631
		C1681.4041748,352.8818359,1681.4100342,309.1599731,1681.3919678,265.4380493z M1634.6385498,344.217041
		c-5.4827881,15.4356689-16.3751221,24.3575439-32.6574707,26.0081787
		c-15.4858398,1.5698853-27.4763184-5.0003662-36.2661133-17.4837646
		c-6.5894775-9.3585205-9.6644287-19.9180298-9.4165039-29.2749023
		c0.0166016-16.5632935,4.5600586-29.3294067,14.8214111-39.5549316
		c20.6672363-20.5947876,54.46521-12.2754517,63.8944092,15.8042603
		C1639.9631348,314.4535522,1639.8886719,329.4360352,1634.6385498,344.217041z"/>
	<path style="fill:#FFFFFF;" d="M1636.666626,397.5004272c0.0023193-1.9830322,0.0047607-3.9660034,0.0070801-5.9489746
		C1637.9771729,393.5360107,1637.9888916,395.5189819,1636.666626,397.5004272z"/>
	<path style="fill:#FFFFFF;" d="M1293.4240723,240.5173798c-0.0159912-4.802002-3.885498-3.8026733-6.4520264-3.8636475
		c-10.4405518-0.2481079-20.8892822-0.1245728-31.3344727-0.0805664c-2.2883301,0.0096436-4.6571045-0.4718018-6.842041,0.6907959
		c-1.0477295,3.3971558-0.6403809,6.8273926-0.2386475,10.2574463c0.3786621,2.7030029-0.5366211,2.4915161-2.3031006,1.1412354
		c-10.2399902-7.8272705-22.0946045-11.7808228-34.5496826-14.2595215
		c-5.9805908-0.5601807-11.9611816-0.5588379-17.9417725-0.0005493
		c-21.940918,3.1583862-39.6402588,13.598877-52.6292725,31.5190582
		c-10.6842041,14.7402954-16.7966309,31.2774048-17.4862061,49.6334229c-0.5887451,3.9855347-0.5887451,7.9711304,0,11.956665
		c0.8972168,3.6572876,0.574585,7.4152832,1.232666,11.1673584c4.0812988,23.2667236,15.3591309,42.1242676,34.0323486,56.3031006
		c9.0491943,6.8713379,19.3790283,11.6186523,30.8693848,13.215332c3.3837891-0.5797119,6.6757812,0.5101929,10.0258789,0.550354
		c0.4244385,0.2224121,0.8514404,0.4386597,1.2818604,0.6486816c1.0712891-0.3829346,2.1431885-0.4309082,3.2160645-0.0059814
		c0.4674072,0.0166016,0.701416-0.2208862,0.7325439-0.6871338c-0.1212158-0.2554321-0.7349854-0.4324341-0.1169434-0.7643433
		c0.0615234-0.0330811,0.2370605,0.2103882,0.3818359,0.2589111c3.1156006,1.0436401,6.2181396-0.5401001,9.3330078-0.0515137
		c12.387207-2.2122803,23.0673828-7.6813965,31.878418-16.7175903c3.5611572-0.0890503,0.6308594,3.0787964,2.0401611,4.069458
		c-0.7701416,1.3485107-0.7647705,2.6971436-0.0009766,4.0460205c-0.5189209,2.0032959-0.5,4.0073853-0.0090332,6.012146
		l0.3399658-0.090271c0.8905029,0.8933105,2.029541,1.0189819,3.2012939,1.0234375
		c12.3618164,0.0466919,24.7236328,0.0328979,37.0854492,0.0126953c1.7585449-0.0028687,3.2470703-0.4621582,4.2578125-1.999939
		c0.0596924-2.1558228,0.1713867-4.3116455,0.1719971-6.4674683c0.0106201-41.8754883,0.0206299-83.7509155,0.0003662-125.6264038
		C1293.5957031,261.7781982,1293.4858398,251.1477509,1293.4240723,240.5173798z M1247.3320312,343.262085
		c-4.9470215,14.6295166-14.675293,24.203125-30.5029297,26.5547485c-0.473999,0.0704346-0.9110107,0.3907471-1.3652344,0.5944824
		c-4.9859619,1.0545654-9.9199219,1.1427612-14.7437744-0.798584
		c-34.807251-11.0557251-41.2381592-58.5372925-19.9649658-82.7902222
		c10.3497314-11.7995605,23.083374-16.4093628,38.4094238-13.2086792
		c14.5090332,3.0299683,23.5582275,12.4135132,28.1364746,26.0968018
		C1252.1291504,314.1407471,1252.2105713,328.8352661,1247.3320312,343.262085z"/>
	<path style="fill:#FFFFFF;" d="M1200.7200928,369.6127014c4.8972168,0.5901794,9.7969971,1.133667,14.7440186,0.798584
		c1.0275879,0.3344727,2.2971191-0.3718262,3.5151367,1.0976868c-5.5302734,0-10.6975098-0.0090332-15.864624,0.0062866
		C1201.7801514,371.5192261,1200.925293,370.9940796,1200.7200928,369.6127014z"/>
	<path style="fill:#FFFFFF;" d="M2012.2944336,236.7905426c5.5605469-1.2042847,11.1920166-0.4927826,16.784668-0.5237122
		c11.7357178-0.0650024,23.4729004,0.1211853,35.2087402,0.2042389c-0.7573242,1.1607819-1.9504395,1.0712585-3.1032715,1.0714417
		c-15.3665771,0.0023193-30.7332764,0.0138397-46.0999756-0.0319824
		C2014.1539307,237.507782,2013.2244873,237.0412445,2012.2944336,236.7905426z"/>
	<path style="fill:#FFFFFF;" d="M1757.4278564,406.3913879c-14.3170166-0.0024414-28.6340332-0.0049438-42.9511719-0.0073853
		c-0.0014648-0.2954407,0.0013428-0.5907288,0.0084229-0.8862305c12.7431641,0.0095825,25.4864502,0.0027466,38.2293701,0.0504761
		C1754.3095703,405.5542297,1756.0579834,405.0053711,1757.4278564,406.3913879z"/>
	<path style="fill:#FFFFFF;" d="M671.3495483,236.3572693c11.5574341-0.0192871,23.1201172-0.6299133,34.6694336,0.3129272
		c-0.2476196,0.3965454-0.4973145,1.1403351-0.7437744,1.1392365c-11.1392212-0.0479736-22.2780151-0.1586761-33.416687-0.2812653
		c-0.269104-0.0029907-0.6781616-0.1623993-0.7636719-0.3604889
		C671.0098267,236.970932,671.2512817,236.6331635,671.3495483,236.3572693z"/>
	<path style="fill:#FFFFFF;" d="M604.03302,236.4737549c6.9927368-0.4532318,13.9857788-0.3717651,20.9786377-0.0146332
		C618.0197754,238.2311249,611.0270386,238.2057343,604.03302,236.4737549z"/>
	<path style="fill:#FFFFFF;" d="M960.8069458,406.475708c-14.6295166,0.0540771-29.2616577,0.5626526-43.8859863-0.2666016
		c3.3609009-1.4131165,6.8840332-0.6034851,10.3201294-0.6416321c11.1472778-0.1238098,22.2967529-0.0455933,33.4454346-0.045166
		C960.8347168,405.826416,960.8748169,406.1442261,960.8069458,406.475708z"/>
	<path style="fill:#FFFFFF;" d="M916.914856,236.7959747c1.9310913-1.0327301,3.9407959-0.5741272,5.9396973-0.3139191
		C920.9586792,238.1824799,918.9559326,237.8522034,916.914856,236.7959747z"/>
	<path style="fill:#FFFFFF;" d="M1097.7623291,406.3943176c-14.6358643,0.2365112-29.2723389,0.6070862-43.9039307-0.1911926
		c3.855957-1.4917908,7.8624268-0.5617371,11.788208-0.6305237c9.1265869-0.1598206,18.2579346-0.0678711,27.387085-0.0180664
		C1094.6328125,405.5632019,1096.387085,405.0036011,1097.7623291,406.3943176z"/>
	<path style="fill:#FFFFFF;" d="M1053.8438721,236.7530212c12.2962646-1.0379944,24.6036377-0.5391083,36.9086914-0.2696838
		c-0.5388184,0.3320465-1.0758057,0.9517059-1.6154785,0.9539032c-11.3392334,0.047226-22.6785889,0.0324554-34.0178223-0.0134277
		C1054.6932373,237.4221039,1054.269043,236.9864349,1053.8438721,236.7530212z"/>
	<path style="fill:#FFFFFF;" d="M1078.7288818,276.6918945c-8.3095703-0.5757141-16.65625,0.5271606-24.9550781-0.554718
		c0.0932617-0.4776917,0.1871338-0.9551086,0.2810059-1.4325256c7.7957764,1.8894958,15.7526855,0.1389771,23.586792,1.0746765
		C1078.034668,275.8263245,1078.3677979,276.3762207,1078.7288818,276.6918945z"/>
</g>
</svg>
