<?xml version="1.0" standalone="no"?>
<!DOCTYPE svg PUBLIC "-//W3C//DTD SVG 20010904//EN"
 "http://www.w3.org/TR/2001/REC-SVG-20010904/DTD/svg10.dtd">
<svg version="1.0" xmlns="http://www.w3.org/2000/svg"
 width="700.000000pt" height="700.000000pt" viewBox="0 0 700.000000 700.000000"
 preserveAspectRatio="xMidYMid meet">
<metadata>
Created by potrace 1.14, written by Peter Selinger 2001-2017
</metadata>
<g transform="translate(0.000000,700.000000) scale(0.100000,-0.100000)"
fill="#000000" stroke="none">
<path d="M1778 6810 c-259 -47 -481 -243 -561 -495 -30 -93 -40 -234 -24 -330
14 -89 21 -113 53 -183 87 -191 241 -330 439 -398 70 -24 95 -28 205 -28 139
-1 175 5 269 40 340 128 535 500 446 850 -68 267 -247 451 -515 531 -56 16
-249 25 -312 13z"/>
<path d="M1620 4779 c-59 -4 -117 -15 -153 -29 -96 -36 -194 -125 -241 -218
-21 -42 -28 -63 -42 -127 -3 -11 -5 -860 -6 -1886 0 -1577 3 -1909 17 -1959 5
-18 18 -48 28 -65 6 -11 17 -32 24 -47 20 -39 105 -122 158 -152 93 -55 149
-61 505 -60 179 1 340 4 358 8 160 32 293 155 342 315 20 62 20 103 20 1950 0
2050 3 1927 -52 2035 -29 56 -112 141 -173 176 -91 52 -145 60 -431 63 -142 1
-302 -1 -354 -4z"/>
<path d="M3225 4767 c-47 -17 -128 -80 -158 -124 -15 -22 -37 -66 -48 -99 -20
-54 -21 -80 -22 -329 0 -148 3 -288 7 -310 11 -67 62 -160 116 -208 83 -75
112 -80 484 -81 l321 -1 1 -1475 c0 -811 4 -1497 8 -1525 24 -161 169 -318
336 -366 54 -15 666 -20 745 -6 126 22 262 122 319 235 59 116 56 33 56 1653
l0 1486 313 0 c171 0 330 3 352 7 107 20 202 110 242 227 16 48 18 90 18 359
l0 305 -33 67 c-39 79 -97 142 -161 171 l-46 22 -1410 1 c-993 1 -1419 -1
-1440 -9z"/>
</g>
</svg>
