<?xml version="1.0" encoding="utf-8"?>
<!-- Generator: Adobe Illustrator 26.3.1, SVG Export Plug-In . SVG Version: 6.00 Build 0)  -->
<svg version="1.1" id="Слой_1" xmlns="http://www.w3.org/2000/svg" xmlns:xlink="http://www.w3.org/1999/xlink" x="0px" y="0px"
	 viewBox="0 0 1024 768" style="enable-background:new 0 0 1024 768;" xml:space="preserve">
<g style="display:none;">
	<rect x="0.5" y="0.5" style="display:inline;fill:#333333;" width="1023" height="767"/>
	<path style="display:inline;fill:#FFFFFF;" d="M1023,1v766H1V1H1023 M1024,0H0v768h1024V0L1024,0z"/>
</g>
<path style="fill:#FFFFFF;" d="M413.5091858,347.8014832H164.6390991V189.4384308
	c0-12.5406952,10.1103516-22.6510315,22.6510315-22.6510315h135.7119446c12.4435425,0,22.6510925,10.1103363,22.6510925,22.6510315
	v166.5226593h45.2049255V189.4384308c0-37.5249176-30.4282227-67.8559418-67.8560181-67.8559418H187.2901306
	c-37.5249176,0-67.8559418,30.4282379-67.8559418,67.8559418v158.3630524H96.7830887
	c-12.4434738,0-22.6510239,10.110321-22.6510239,22.651001v226.2190857c0,12.5406494,10.1103439,22.651001,22.6510239,22.651001
	h316.7261047c12.4434814,0,22.6510315-10.1103516,22.6510315-22.651001V370.4524841
	C436.1602173,357.9118042,425.9526672,347.8014832,413.5091858,347.8014832z M307.5483093,515.9777222H202.7438965v-52.6809387
	h104.8044128V515.9777222z"/>
<text transform="matrix(1 0 0 1 495.2886353 127.3887177)"><tspan x="0" y="0" style="fill:#FFFFFF; font-family:'Roboto-Bold'; font-size:37.5546646px;">Как разблокировать  </tspan><tspan x="0" y="45.0654297" style="fill:#FFFFFF; font-family:'Roboto-Bold'; font-size:37.5546646px;">                    Google аккаунт?</tspan></text>
<text transform="matrix(1 0 0 1 528.9660645 363.7113037)"><tspan x="0" y="0" style="fill:#FFFFFF; font-family:'Roboto-Bold'; font-size:37.5546646px;">Cum să deblochezi </tspan><tspan x="0" y="45.0654297" style="fill:#FFFFFF; font-family:'Roboto-Bold'; font-size:37.5546646px;">                account Google?</tspan></text>
<text transform="matrix(1 0 0 1 517.8066406 599.3253174)"><tspan x="0" y="0" style="fill:#FFFFFF; font-family:'Roboto-Bold'; font-size:37.5546646px;">How to unlock  </tspan><tspan x="0" y="45.0654297" style="fill:#FFFFFF; font-family:'Roboto-Bold'; font-size:37.5546646px;">                Google account?</tspan></text>
</svg>
